<svg xmlns="http://www.w3.org/2000/svg" xmlns:xlink="http://www.w3.org/1999/xlink" version="1.1" id="Layer_1" x="0px" y="0px" viewBox="0 0 48 48" style="enable-background:new 0 0 48 48;" xml:space="preserve"><script xmlns="" src="chrome-extension://hoklmmgfnpapgjgcpechhaamimifchmp/frame_ant/frame_ant.js"/>
<style type="text/css">
	.st0{fill:#84BC43;}
</style>
<g id="Stock">
	<path class="st0" d="M24,0C11.6,0,1.5,10.1,1.5,22.5v18C1.5,41.3,2.2,42,3,42s1.5-0.7,1.5-1.5v-18C4.5,11.7,13.2,3,24,3   s19.5,8.7,19.5,19.5V45h-3V22.5c0-2.5-2-4.5-4.5-4.5H12c-2.5,0-4.5,2-4.5,4.5V45H3c-0.8,0-1.5,0.7-1.5,1.5S2.2,48,3,48h42   c0.8,0,1.5-0.7,1.5-1.5v-24C46.5,10.1,36.4,0,24,0z M10.5,45V22.5c0-0.8,0.7-1.5,1.5-1.5h24c0.8,0,1.5,0.7,1.5,1.5V45H10.5z"/>
	<path class="st0" d="M33,33h-3v-7.5c0-0.8-0.7-1.5-1.5-1.5h-9c-0.8,0-1.5,0.7-1.5,1.5V33h-3c-0.8,0-1.5,0.7-1.5,1.5v9   c0,0.8,0.7,1.5,1.5,1.5h18c0.8,0,1.5-0.7,1.5-1.5v-9C34.5,33.7,33.8,33,33,33z M21,27h6v6h-6V27z M16.5,36h6v6h-6V36z M31.5,42h-6   v-6h6V42z"/>
	<path class="st0" d="M24,15c-2.5,0-4.5-2-4.5-4.5S21.5,6,24,6s4.5,2,4.5,4.5S26.5,15,24,15z M24,9c-0.8,0-1.5,0.7-1.5,1.5   S23.2,12,24,12s1.5-0.7,1.5-1.5S24.8,9,24,9z"/>
</g>
</svg><svg xmlns="http://www.w3.org/2000/svg" xmlns:xlink="http://www.w3.org/1999/xlink" version="1.1" id="Layer_1" x="0px" y="0px" viewBox="0 0 48 48" style="enable-background:new 0 0 48 48;" xml:space="preserve"><script xmlns="" src="chrome-extension://hoklmmgfnpapgjgcpechhaamimifchmp/frame_ant/frame_ant.js"/>
<style type="text/css">
	.st0{fill:#4d148c;}
</style>
<g id="Stock">
	<path class="st0" d="M24,0C11.6,0,1.5,10.1,1.5,22.5v18C1.5,41.3,2.2,42,3,42s1.5-0.7,1.5-1.5v-18C4.5,11.7,13.2,3,24,3   s19.5,8.7,19.5,19.5V45h-3V22.5c0-2.5-2-4.5-4.5-4.5H12c-2.5,0-4.5,2-4.5,4.5V45H3c-0.8,0-1.5,0.7-1.5,1.5S2.2,48,3,48h42   c0.8,0,1.5-0.7,1.5-1.5v-24C46.5,10.1,36.4,0,24,0z M10.5,45V22.5c0-0.8,0.7-1.5,1.5-1.5h24c0.8,0,1.5,0.7,1.5,1.5V45H10.5z"/>
	<path class="st0" d="M33,33h-3v-7.5c0-0.8-0.7-1.5-1.5-1.5h-9c-0.8,0-1.5,0.7-1.5,1.5V33h-3c-0.8,0-1.5,0.7-1.5,1.5v9   c0,0.8,0.7,1.5,1.5,1.5h18c0.8,0,1.5-0.7,1.5-1.5v-9C34.5,33.7,33.8,33,33,33z M21,27h6v6h-6V27z M16.5,36h6v6h-6V36z M31.5,42h-6   v-6h6V42z"/>
	<path class="st0" d="M24,15c-2.5,0-4.5-2-4.5-4.5S21.5,6,24,6s4.5,2,4.5,4.5S26.5,15,24,15z M24,9c-0.8,0-1.5,0.7-1.5,1.5   S23.2,12,24,12s1.5-0.7,1.5-1.5S24.8,9,24,9z"/>
</g>
</svg>