<svg xmlns="http://www.w3.org/2000/svg" viewBox="0 0 63 49"><defs><style>.cls-1{fill:#d82427;}.cls-2{fill:#fff;}</style></defs><title>Allied Express</title><g id="Layer_2" data-name="Layer 2"><rect class="cls-1" width="63" height="49"/><path class="cls-2" d="M24.34,17.11c-.19.67-.38,1.32-.57,2s-.46,1.58-.71,2.36a1.28,1.28,0,0,1-.31.49c-1.1,1.11-2.22,2.21-3.34,3.32-.09.08-.17.18-.34.36h2.79c-.09.32-.15.57-.22.81-.12.44-.27.88-.38,1.32s-.23.4-.55.4q-1.91,0-3.81,0a1.08,1.08,0,0,0-.64.27c-1.1,1.05-2.17,2.13-3.26,3.19a.75.75,0,0,1-.46.21c-2.15,0-4.3,0-6.45,0l-.18,0L7.08,30.6l6.78-6.72L20.5,17.3a.78.78,0,0,1,.43-.22h3.22l.19,0Zm5.69,0c-.21.72-.41,1.42-.62,2.11q-1.78,6.08-3.58,12.16a.52.52,0,0,1-.62.45c-1.39,0-2.78,0-4.17,0h-.43c.19-.68.37-1.31.56-1.93Q23,23.68,24.85,17.45c0-.2.09-.39.39-.38h4.6l.19,0Zm18.7,11,1-3.54c.54-1.94,1.09-3.87,1.62-5.81.08-.31.2-.46.55-.44.87.05,1.75,0,2.62.09a2.7,2.7,0,0,1,2.59,3A7.34,7.34,0,0,1,54.62,27,5.38,5.38,0,0,1,51,28.11c-.73,0-1.46,0-2.26,0ZM52,25.76a1.41,1.41,0,0,0,1.16-.56,5.41,5.41,0,0,0,1.18-3.5.9.9,0,0,0-.54-.89c-.27-.13-.43-.12-.53.24-.35,1.35-.75,2.7-1.12,4.05C52.13,25.3,52.09,25.52,52,25.76ZM46.87,22h2.05c-.16.58-.29,1.09-.43,1.6-.23.8,0,.67-.9.68-.36,0-.73,0-1.1,0a.41.41,0,0,0-.29.17c-.14.43-.25.87-.38,1.39h2.26c-.21.76-.39,1.45-.59,2.13a.31.31,0,0,1-.24.15H42.7s0,0-.1-.06c.19-.68.37-1.37.57-2.05.67-2.41,1.35-4.81,2-7.21.1-.34.22-.46.58-.46,1.45,0,2.9,0,4.44,0-.21.75-.4,1.44-.61,2.13,0,.07-.22.12-.34.12-.54,0-1.07,0-1.61,0a.38.38,0,0,0-.44.34c-.08.32-.19.64-.32,1.06ZM31.15,25.84h2c-.21.76-.4,1.46-.6,2.16a.25.25,0,0,1-.18.11H27.89c.14-.55.27-1.05.41-1.54.74-2.64,1.48-5.26,2.2-7.9a.4.4,0,0,1,.46-.35c.73,0,1.46,0,2.25,0-.69,2.5-1.38,5-2.06,7.51Zm7.45-7.51-2.06,7.51h2c-.21.76-.39,1.45-.59,2.13,0,.07-.16.14-.24.14H33.44l-.11-.06c.17-.61.33-1.22.5-1.83.67-2.46,1.36-4.92,2-7.38a.58.58,0,0,1,.7-.52c.66,0,1.32,0,2.06,0Zm.12,9.78c.07-.29.13-.53.2-.76q1.2-4.3,2.39-8.61c.08-.31.21-.43.53-.42.7,0,1.4,0,2.15,0-.36,1.33-.7,2.58-1.05,3.84-.51,1.87-1,3.73-1.53,5.59-.07.26-.16.37-.45.36-.72,0-1.45,0-2.24,0Zm2.91,3.7H41a5.61,5.61,0,0,1,.09-.63c.06-.26,0-.39-.3-.4-.61,0-.61,0-.79.57,0,.15-.09.3-.14.46h-.54l.76-2.72c.53,0,1,0,1.57,0a.57.57,0,0,1,.48.78,3.81,3.81,0,0,1-.41.63l-.12,1.31ZM40.4,30.32a3.33,3.33,0,0,0,.84-.08c.14,0,.23-.27.31-.44s-.09-.19-.16-.22C40.79,29.32,40.4,29.59,40.4,30.32Zm4.09-1.22h2c0,.36-.13.49-.48.45-.19,0-.39,0-.59,0-.41-.05-.61.1-.56.58h1.24l-.11.53h-.8c-.6,0-.6,0-.68.66h1.43c0,.43-.13.54-.5.52-.55,0-1.09,0-1.69,0l.76-2.73ZM28.9,31.83H27.09l-.24,0,.74-2.71h2c0,.45,0,.45-.46.45a3.9,3.9,0,0,1-.59,0c-.41-.05-.61.1-.59.58h1.27l-.11.53h-.84c-.57,0-.57,0-.66.65H29l-.12.53ZM52.18,31h.44c.24.44.53.59.92.4a.66.66,0,0,0,.28-.37c0-.05-.17-.2-.28-.25a2.39,2.39,0,0,0-.46-.12.68.68,0,0,1-.35-1.2,1.46,1.46,0,0,1,1.58-.33.85.85,0,0,1,.35.42c0,.09-.07.33-.13.33s-.35,0-.41-.13a.51.51,0,0,0-.64-.23c-.15.05-.26.22-.39.33a2,2,0,0,0,.36.3,5.15,5.15,0,0,0,.56.16.55.55,0,0,1,.39.83,1.47,1.47,0,0,1-2,.63C52.17,31.59,52.11,31.39,52.18,31Zm-3.72-.07a.65.65,0,0,0,1,.39c.24-.19.21-.41-.08-.52a5,5,0,0,0-.52-.14.66.66,0,0,1-.38-1.16,1.48,1.48,0,0,1,1.68-.35.62.62,0,0,1,.26.32c0,.13,0,.37-.07.4s-.36.13-.49-.14a.59.59,0,0,0-.88-.09c-.17.17-.2.35.07.45s.48.13.72.21a.56.56,0,0,1,.4.85,1.44,1.44,0,0,1-2,.62c-.16-.12-.2-.41-.3-.62l.51-.22Zm-12.73.9h-.55l.76-2.72c.46,0,.92,0,1.37,0s.59.28.52.7c-.14.73-.48,1.07-1.23,1-.51,0-.7.19-.77.63a2.56,2.56,0,0,1-.1.34Zm.45-1.49a2,2,0,0,0,.7,0c.16-.06.27-.28.35-.45s-.1-.24-.2-.27a.52.52,0,0,0-.79.41Q36.21,30.14,36.18,30.32ZM31.54,29c.3.08.58.08.71.22s.15.42.23.67c.45-.29.6-1.06,1.38-.77-.3.33-.57.66-.88.95a.54.54,0,0,0-.14.72c.13.31.23.63.38,1.07-.32-.07-.61-.06-.75-.2s-.16-.45-.23-.72c-.48.31-.63,1.09-1.43.82.33-.38.65-.75,1-1.1a.46.46,0,0,0,.12-.55c-.14-.33-.23-.66-.38-1.11Z"/></g></svg>