<?xml version="1.0" encoding="utf-8"?>
<!-- Generator: Adobe Illustrator 22.1.0, SVG Export Plug-In . SVG Version: 6.00 Build 0)  -->
<svg version="1.1" id="Layer_1" xmlns="http://www.w3.org/2000/svg" xmlns:xlink="http://www.w3.org/1999/xlink" x="0px" y="0px"
	 viewBox="0 0 20 15" style="enable-background:new 0 0 20 15;" xml:space="preserve">
<style type="text/css">
	.st0{fill:#BC202E;}
	.st1{fill:#FFFFFF;}
</style>
<rect class="st0" width="20" height="15"/>
<g id="UbxMwv.tif">
	<g>
		<path class="st1" d="M9.46,9.87c0.36-0.05,0.72-0.07,1.05-0.15c1.66-0.41,2.82-1.38,3.29-3.06c0.45-1.61-0.22-3.31-1.62-4.3
			c-0.75-0.53-1.59-0.81-2.51-0.85C9.45,1.5,9.45,1.5,9.45,1.27c0-0.07,0-0.15,0-0.26c0.29,0,0.58-0.01,0.86,0
			c1.4,0.07,2.66,0.54,3.76,1.42c1.44,1.16,2.25,2.68,2.42,4.52c0.3,3.31-2,6.33-5.27,6.95c-0.54,0.1-1.07,0.12-1.61,0.1
			c-0.11,0-0.15-0.03-0.15-0.14c0-1.3,0-2.6,0-3.91C9.45,9.92,9.45,9.89,9.46,9.87z"/>
		<path class="st1" d="M7.7,1.44c0,4.05,0,8.09,0,12.13c-1.78-0.57-4.06-2.61-4.2-5.78C3.36,4.47,5.6,2.16,7.7,1.44z"/>
	</g>
</g>
</svg>
