<svg id="Layer_1" data-name="Layer 1" xmlns="http://www.w3.org/2000/svg" viewBox="0 0 20 15"><defs><style>.cls-1{fill:#ed3226;}.cls-2{fill:#fff;}</style></defs><title>aramex-mini</title><rect class="cls-1" width="20" height="15"/><path class="cls-2" d="M5.76,6.06a.61.61,0,0,1-.13,0H5.4a1,1,0,0,0-.34.14l-.18.16a.85.85,0,0,1,0-.16s0-.06-.06-.06H4.26s0,0,0,.06V8.85c0,.05,0,.05.06.05h.57s.06,0,.06-.06V7.45a2,2,0,0,1,0-.35.63.63,0,0,1,.13-.3.44.44,0,0,1,.48-.12s0,0,.07,0A4.74,4.74,0,0,1,6,6.15,1.45,1.45,0,0,0,5.76,6.06Z"/><path class="cls-2" d="M8.53,8.68V6.18s0-.07-.06-.07H7.88s0,0,0,0v.25l0,0,0,0a1.17,1.17,0,0,0-1-.29,1.09,1.09,0,0,0-.6.26,1.37,1.37,0,0,0-.52,1,2,2,0,0,0,0,.6,1.39,1.39,0,0,0,.53.82,1.2,1.2,0,0,0,.9.24,1.4,1.4,0,0,0,.43-.16c.08-.05.16-.12.25-.19v.25s0,0,0,0h.62s0,0,0,0A1.08,1.08,0,0,1,8.53,8.68Zm-.77-.75a.65.65,0,0,1-.5.38A.66.66,0,0,1,6.7,8.2a.8.8,0,0,1-.33-.57,1,1,0,0,1,.07-.52A.75.75,0,0,1,7.5,6.79a.67.67,0,0,1,.33.62v.07A1,1,0,0,1,7.76,7.93Z"/><path class="cls-2" d="M3.85,7.87V6.17s0-.06-.06-.06H3.2s-.05,0-.05,0v.26L3,6.31a1.18,1.18,0,0,0-1-.24,1.24,1.24,0,0,0-.47.24,1.37,1.37,0,0,0-.4.55A1.72,1.72,0,0,0,1,7.32a1.77,1.77,0,0,0,0,.46,1.4,1.4,0,0,0,.27.64,1.35,1.35,0,0,0,.64.49A1.25,1.25,0,0,0,2.46,9a1.26,1.26,0,0,0,.47-.17c.07,0,.14-.12.22-.17v.23s0,.05.05.05h.58c.06,0,.06,0,.06-.06C3.85,8.52,3.85,8.19,3.85,7.87ZM3.07,8a.62.62,0,0,1-.47.36A.68.68,0,0,1,2,8.2a.74.74,0,0,1-.32-.51.55.55,0,0,1,0-.18.78.78,0,0,1,.25-.63.73.73,0,0,1,1,0,.68.68,0,0,1,.21.46A1.06,1.06,0,0,1,3.07,8Z"/><path class="cls-2" d="M16.08,8.33,15.6,8.1a.08.08,0,0,0-.11,0s0,0-.05.05a1,1,0,0,1-.43.18.92.92,0,0,1-.52-.08.71.71,0,0,1-.39-.51c0-.06,0-.06.05-.06h2.09c.05,0,.07,0,.07-.06s0-.14,0-.21a.68.68,0,0,0,0-.2,1.33,1.33,0,0,0-.42-.8A1.31,1.31,0,0,0,15,6.05a1.43,1.43,0,0,0-1.31.57,1.23,1.23,0,0,0-.24.59,1.73,1.73,0,0,0,0,.6,1.36,1.36,0,0,0,.44.8,1.44,1.44,0,0,0,.93.36,1.87,1.87,0,0,0,.47,0,1.31,1.31,0,0,0,.81-.52S16.12,8.35,16.08,8.33ZM14.71,6.66a.8.8,0,0,1,.55.07.67.67,0,0,1,.34.38s0,0,0,0H14.13A.72.72,0,0,1,14.71,6.66Z"/><path class="cls-2" d="M19,8.84l-.4-.55L18,7.46s0,0,0-.07l.36-.5.5-.68s.05-.06,0-.1h-.75l-.05,0-.48.69s-.05,0-.08,0l-.47-.67s0,0-.06,0h-.77s0,0,0,0l.37.51.53.73a.06.06,0,0,1,0,.08l-.25.36c-.14.19-.28.39-.43.58l-.34.49h.76a0,0,0,0,0,.05,0c.2-.28.41-.56.61-.85,0,0,0,0,0,0l.59.81a.1.1,0,0,0,.11.06H19s0,0,.05,0S19,8.86,19,8.84Z"/><path class="cls-2" d="M13.11,7a1.76,1.76,0,0,0-.06-.39A.86.86,0,0,0,12.24,6a1.15,1.15,0,0,0-.55.11,1.54,1.54,0,0,0-.29.21c-.05,0-.1.12-.15.18a1,1,0,0,0-1.67-.11V6.16s0,0-.05,0H8.94s0,0,0,0V8.85c0,.05,0,.05.06.05h.57c.05,0,.07,0,.07-.06,0-.44,0-.87,0-1.31a2.2,2.2,0,0,1,0-.36A.6.6,0,0,1,10,6.71a.43.43,0,0,1,.55.24,1.37,1.37,0,0,1,.08.53,1.62,1.62,0,0,1,0,.22V8.91h.7V7.69a2.84,2.84,0,0,1,0-.46.57.57,0,0,1,.43-.52.42.42,0,0,1,.56.29,2.23,2.23,0,0,1,0,.36V8.91h.7V7.36S13.12,7.12,13.11,7Z"/></svg>