<svg width="54" height="44" viewBox="0 0 54 44" fill="none" xmlns="http://www.w3.org/2000/svg">
<rect width="54" height="44" fill="#005D69"/>
<path d="M36.4753 10.3436C36.4753 9.00928 36.4753 7.77759 36.4753 6.54588C38.836 6.54588 41.1968 6.54588 43.6602 6.54588C43.6602 16.7075 43.6602 26.9718 43.6602 37.236C41.2995 37.236 38.9387 37.236 36.4753 37.236C36.4753 36.0043 36.4753 34.7726 36.4753 33.4382C36.0647 33.8488 35.7568 34.0541 35.4488 34.362C29.2903 40.2126 17.7943 38.8783 13.1754 31.2827C9.37759 25.0215 9.37762 18.6577 13.278 12.4991C16.3573 7.57229 21.1815 5.72474 26.8269 6.03266C31.0352 6.13531 33.396 7.367 36.4753 10.3436ZM36.7832 21.9423C36.7832 16.5022 32.9854 12.4991 27.4427 12.4991C22.1053 12.3965 18.1023 16.3996 18.1023 21.737C17.9996 27.0744 22.0027 31.0775 27.3401 31.0775C32.7802 31.1801 36.6805 27.3823 36.7832 21.9423Z" fill="white"/>
</svg>
