<?xml version="1.0" encoding="utf-8"?>
<!-- Generator: Adobe Illustrator 27.1.1, SVG Export Plug-In . SVG Version: 6.00 Build 0)  -->
<svg version="1.1" xmlns="http://www.w3.org/2000/svg" xmlns:xlink="http://www.w3.org/1999/xlink" x="0px" y="0px"
	 viewBox="0 0 123.837 49" style="enable-background:new 0 0 123.837 49;" xml:space="preserve">
<style type="text/css">
	.st0{fill:#150773;}
	.st1{fill:#FFFFFF;}
	.st2{fill:#1700FF;}
</style>
<g id="Layer_1">
</g>
<g id="Layer_2">
	<g>
		<path class="st0" d="M5.86,42.977c0.338-0.823,0.662-1.614,0.988-2.404c1.913-4.63,3.827-9.258,5.735-13.89
			c0.101-0.246,0.211-0.359,0.507-0.359c6.777,0.011,13.554,0.01,20.332,0.004c0.74-0.001,1.431,0.152,2.069,0.527
			c1.492,0.877,1.911,2.39,1.073,3.904c-0.626,1.132-1.605,1.918-2.651,2.631c-0.297,0.203-0.606,0.387-0.837,0.534
			c0.225,0.68,0.515,1.317,0.641,1.985c0.22,1.163-0.193,2.214-0.818,3.175c-1.627,2.506-3.919,3.893-6.936,3.904
			c-6.59,0.025-13.181,0.008-19.771,0.007C6.096,42.998,6.001,42.986,5.86,42.977z M16.183,40.019
			c0.121,0.016,0.181,0.03,0.241,0.03c1.657,0.001,3.314,0.004,4.97-0.003c0.183-0.001,0.373-0.036,0.547-0.092
			c1.09-0.352,1.845-1.098,2.385-2.079c0.257-0.467,0.279-0.979,0.187-1.491c-0.145-0.799-0.611-1.181-1.408-1.181
			c-0.947,0-1.893,0-2.84,0c-0.245,0-0.489,0-0.76,0c0.019-0.097,0.019-0.146,0.037-0.187c0.334-0.736,0.68-1.466,0.999-2.208
			c0.096-0.223,0.241-0.241,0.439-0.241c1.233,0.004,2.468,0.034,3.699-0.007c1.151-0.038,2.048-0.604,2.635-1.581
			c0.5-0.832-0.035-1.706-1.002-1.709c-1.769-0.004-3.538,0.002-5.307-0.006c-0.23-0.001-0.348,0.06-0.442,0.287
			c-1,2.411-2.014,4.816-3.024,7.223C17.094,37.84,16.649,38.905,16.183,40.019z"/>
		<path class="st0" d="M63.184,35.179c0.38-0.841,0.739-1.656,1.125-2.458c0.043-0.09,0.242-0.147,0.37-0.148
			c1.221-0.011,2.443,0.014,3.663-0.012c1.157-0.025,2.053-0.58,2.66-1.54c0.541-0.855,0.006-1.748-1.007-1.749
			c-1.744-0.002-3.489,0.005-5.233-0.007c-0.263-0.002-0.394,0.075-0.498,0.323c-1.843,4.376-3.698,8.747-5.548,13.121
			c-0.07,0.165-0.121,0.296-0.357,0.295c-2.878-0.01-5.756-0.007-8.635-0.008c-0.034,0-0.069-0.014-0.145-0.03
			c0.273-0.665,0.539-1.317,0.809-1.969c1.976-4.779,3.954-9.556,5.922-14.338c0.102-0.248,0.223-0.332,0.49-0.331
			c6.816,0.007,13.631,0.004,20.447,0.007c1.507,0.001,2.829,0.817,3.287,2.03c0.334,0.883,0.147,1.713-0.313,2.5
			c-0.506,0.865-1.253,1.499-2.016,2.128c-1.422,1.172-3.111,1.614-4.88,1.872c-3.296,0.48-6.613,0.32-9.924,0.343
			C63.343,35.208,63.285,35.193,63.184,35.179z"/>
		<path class="st0" d="M94.524,37.276c-0.229,1.504,0.6,1.972,1.606,2.161c1.923,0.361,3.817,0.242,5.639-0.516
			c0.312-0.13,0.609-0.347,0.85-0.586c0.394-0.392,0.336-0.833-0.175-1.052c-0.623-0.268-1.283-0.468-1.944-0.629
			c-1.654-0.402-3.326-0.732-4.973-1.158c-0.639-0.166-1.274-0.447-1.831-0.802c-0.398-0.254-0.735-0.677-0.969-1.097
			c-0.361-0.648-0.142-1.309,0.204-1.913c0.59-1.028,1.449-1.796,2.434-2.428c2.009-1.288,4.236-2.012,6.561-2.456
			c2.784-0.531,5.591-0.599,8.404-0.287c1.189,0.132,2.363,0.364,3.43,0.952c1.036,0.571,1.622,1.406,1.517,2.64
			c-0.019,0.222-0.098,0.319-0.33,0.356c-2.259,0.362-4.516,0.737-6.773,1.107c-0.048,0.008-0.098,0.001-0.144,0.001
			c-0.019-0.023-0.047-0.04-0.048-0.06c-0.108-1.106-0.535-1.584-1.784-1.773c-1.457-0.22-2.908-0.152-4.291,0.437
			c-0.227,0.097-0.451,0.217-0.646,0.367c-0.543,0.415-0.494,0.86,0.137,1.112c0.471,0.188,0.959,0.346,1.452,0.466
			c1.642,0.401,3.296,0.751,4.931,1.178c0.752,0.196,1.481,0.5,2.198,0.805c0.3,0.127,0.571,0.358,0.808,0.589
			c0.671,0.657,0.816,1.428,0.437,2.289c-0.504,1.144-1.385,1.963-2.391,2.655c-1.481,1.019-3.132,1.668-4.845,2.173
			c-2.964,0.873-6.005,1.165-9.079,1.108c-1.767-0.033-3.541-0.141-5.213-0.797c-0.559-0.219-1.109-0.519-1.582-0.886
			c-0.901-0.699-1.189-1.684-1.055-2.794c0.012-0.104,0.155-0.263,0.253-0.275c2.356-0.308,4.715-0.6,7.073-0.893
			C94.42,37.261,94.457,37.27,94.524,37.276z"/>
		<path class="st0" d="M115.446,19.145c-1.147,0.084-2.294,0.17-3.442,0.251c-2.695,0.192-5.39,0.387-8.086,0.571
			c-2,0.137-4.001,0.26-6.002,0.385c-3.269,0.205-6.537,0.417-9.807,0.605c-3.345,0.192-6.69,0.364-10.036,0.536
			c-3.856,0.198-7.712,0.411-11.57,0.574c-3.871,0.163-7.743,0.298-11.615,0.4c-4.446,0.117-8.893,0.249-13.34,0.258
			c-4.596,0.009-9.193-0.073-13.787-0.209c-2.773-0.082-5.547-0.295-8.282-0.803c-0.973-0.181-1.929-0.472-2.879-0.756
			c-0.325-0.097-0.63-0.3-0.907-0.505c-0.451-0.335-0.542-0.739-0.326-1.255c0.277-0.66,0.792-1.125,1.38-1.479
			c0.85-0.511,1.742-0.954,2.617-1.423c0.117-0.063,0.241-0.113,0.418-0.195c-0.367-0.168-0.685-0.293-0.983-0.455
			c-0.949-0.513-1.094-1.198-0.423-2.043c0.667-0.839,1.583-1.351,2.516-1.825c2.439-1.239,5.025-2.098,7.655-2.799
			c3.385-0.902,6.799-1.7,10.205-2.522c1.047-0.253,2.11-0.438,3.178-0.6c-0.682,0.177-1.366,0.348-2.046,0.534
			c-2.038,0.557-4.094,1.058-6.106,1.698c-2.259,0.718-4.493,1.523-6.706,2.374c-0.99,0.38-1.928,0.92-2.84,1.469
			c-0.766,0.461-0.739,1.016,0.018,1.524c0.377,0.253,0.803,0.431,1.207,0.642c-1.829,0.625-3.669,1.254-5.509,1.882
			c0.004,0.056,0.007,0.113,0.011,0.169c0.663,0.164,1.327,0.328,2.029,0.502c-0.247,0.185-0.478,0.341-0.69,0.521
			c-0.44,0.374-0.459,0.688-0.06,1.108c0.462,0.486,1.074,0.71,1.69,0.912c1.699,0.559,3.46,0.81,5.227,1.023
			c3.836,0.463,7.691,0.646,11.55,0.777c6.514,0.221,13.03,0.234,19.546,0.136c5.705-0.086,11.409-0.227,17.113-0.367
			c3.313-0.081,6.625-0.192,9.936-0.318c4.22-0.161,8.439-0.346,12.657-0.532c3.049-0.135,6.097-0.282,9.145-0.434
			c2.338-0.116,4.675-0.247,7.013-0.371c0.11-0.006,0.22-0.001,0.33-0.001C115.445,19.118,115.445,19.131,115.446,19.145z"/>
		<path class="st2" d="M22.213,16.489c1.557-0.665,3.114-1.33,4.697-2.007c-0.385-0.115-0.759-0.227-1.133-0.339
			c4.327-1.325,8.719-2.3,13.143-3.149c-1.965,0.527-3.939,1.024-5.893,1.589c-1.95,0.564-3.88,1.195-5.819,1.796
			c0.005,0.052,0.01,0.104,0.015,0.156c0.379,0.079,0.754,0.189,1.136,0.233c2.224,0.26,4.444,0.581,6.675,0.742
			c10.126,0.731,20.266,0.673,30.407,0.479c4.073-0.078,8.147-0.148,12.219-0.26c4.022-0.11,8.043-0.26,12.063-0.408
			c3.36-0.123,6.72-0.255,10.079-0.407c3.82-0.173,7.639-0.372,11.458-0.562c2.09-0.104,4.179-0.213,6.269-0.318
			c0.148-0.007,0.297-0.001,0.447,0.04c-1.047,0.08-2.095,0.163-3.142,0.239c-2.049,0.148-4.098,0.295-6.148,0.436
			c-2.025,0.139-4.05,0.27-6.075,0.402c-2.199,0.143-4.399,0.288-6.599,0.423c-2.176,0.133-4.352,0.257-6.528,0.381
			c-2.574,0.147-5.148,0.297-7.722,0.435c-1.754,0.094-3.508,0.169-5.263,0.249c-3.72,0.169-7.439,0.355-11.16,0.498
			c-3.51,0.135-7.022,0.249-10.533,0.327c-4.359,0.097-8.72,0.187-13.08,0.206c-3.151,0.014-6.305-0.042-9.454-0.16
			c-2.524-0.095-5.044-0.317-7.564-0.512c-0.827-0.064-1.646-0.218-2.469-0.331C22.231,16.609,22.222,16.549,22.213,16.489z"/>
		<path class="st2" d="M19.781,16.101c-0.367-0.168-0.685-0.293-0.983-0.455c-0.949-0.513-1.094-1.198-0.423-2.043
			c0.667-0.839,1.583-1.351,2.516-1.825c2.439-1.239,5.025-2.098,7.655-2.799c3.385-0.902,6.799-1.7,10.205-2.522
			c1.047-0.253,2.11-0.438,3.178-0.6c-0.682,0.177-1.366,0.348-2.046,0.534c-2.038,0.557-4.094,1.058-6.106,1.698
			c-2.259,0.718-4.493,1.523-6.706,2.374c-0.99,0.38-1.928,0.92-2.84,1.469c-0.766,0.461-0.739,1.016,0.018,1.524
			c0.377,0.253,0.803,0.431,1.207,0.642C23.629,14.723,21.621,15.472,19.781,16.101"/>
		<path class="st0" d="M26.91,14.482c-0.385-0.115-0.759-0.227-1.133-0.339c4.327-1.325,8.719-2.3,13.143-3.149
			c-1.965,0.527-3.939,1.024-5.893,1.589c-1.95,0.564-3.88,1.195-5.819,1.796"/>
	</g>
</g>
</svg>
