<svg xmlns="http://www.w3.org/2000/svg" viewBox="0 0 63 49"><defs><style>.cls-1{fill:#0254a2;}.cls-2{fill:#fff;}.cls-3{fill:#ed3e47;}</style></defs><title>Canpar</title><g id="Layer_2" data-name="Layer 2"><rect class="cls-1" width="63" height="49"/><path class="cls-2" d="M5.91,24.41c.08,0,.07-.1.08-.16A4.61,4.61,0,0,1,9.7,20.68a6.93,6.93,0,0,1,3.67.1,2.86,2.86,0,0,1,2.19,2.53c0,.26,0,.39-.31.37-.78,0-1.56,0-2.33,0-.19,0-.26-.05-.29-.24a.94.94,0,0,0-.82-.89,2.26,2.26,0,0,0-2.76,2,2.68,2.68,0,0,0,0,1.26,1.26,1.26,0,0,0,1,1,1.73,1.73,0,0,0,2.15-1c0-.12.1-.18.23-.17H15.3a3.64,3.64,0,0,1-1.24,2.09,5.21,5.21,0,0,1-2.86,1.08,7,7,0,0,1-2.88-.2A3.23,3.23,0,0,1,6,26.18c0-.06,0-.16-.09-.18Z"/><path class="cls-2" d="M36.4,23.37a.19.19,0,0,0,.19-.06,2.93,2.93,0,0,1,3.16-.3A2.08,2.08,0,0,1,41,24.67,3.68,3.68,0,0,1,39,28.47a4,4,0,0,1-2.78.18,2,2,0,0,1-1-.67c-.21.8-.4,1.53-.57,2.27-.05.21-.13.29-.36.28-.82,0-1.64,0-2.5,0,.17-.69.34-1.35.52-2,.46-1.78.94-3.56,1.4-5.35.06-.22.14-.32.4-.31.67,0,1.34,0,2,0,.39,0,.4,0,.27.39C36.43,23.28,36.42,23.32,36.4,23.37Zm.81,1a1.14,1.14,0,0,0-.94.4,2.12,2.12,0,0,0-.47,1.73.8.8,0,0,0,.64.67,1.29,1.29,0,0,0,1.4-.53,2.25,2.25,0,0,0,.36-1.33A.86.86,0,0,0,37.21,24.34Z"/><path class="cls-3" d="M18.33,21.88a59.23,59.23,0,0,1,8.74-2.22c2.17-.39,4.36-.68,6.55-.87a85.81,85.81,0,0,1,9.62-.3q3.61.07,7.21.48c2.15.23,4.28.55,6.41,1,.23,0,.27.12.2.33a10.72,10.72,0,0,0-.28,1.08c-.05.24-.15.26-.37.21q-2.55-.54-5.15-.92-3.06-.45-6.13-.69c-2.69-.22-5.39-.29-8.08-.27a83.71,83.71,0,0,0-9.09.58,75.15,75.15,0,0,0-9.3,1.66A.31.31,0,0,1,18.33,21.88Z"/><path class="cls-2" d="M27.75,23.52a3.38,3.38,0,0,1,2.3-.81,3.48,3.48,0,0,1,1.43.29,1.32,1.32,0,0,1,.82,1.47c-.16,1.12-.55,2.18-.81,3.27l-.09.31c-.17.62-.17.62-.79.62s-1.26,0-1.89,0c-.24,0-.26-.07-.2-.27.27-1,.55-2,.81-3,.17-.63-.15-1-.81-.91a1.22,1.22,0,0,0-1.18,1c-.26.94-.52,1.88-.75,2.82-.07.31-.18.43-.52.42-.71,0-1.43,0-2.14,0-.19,0-.23,0-.18-.23.48-1.78.94-3.56,1.4-5.35,0-.18.12-.23.3-.23.72,0,1.45,0,2.17,0,.22,0,.29.05.2.27A.68.68,0,0,0,27.75,23.52Z"/><path class="cls-2" d="M20,28.16a4.05,4.05,0,0,1-3.25.52,1.46,1.46,0,0,1-1.31-1.32,1.62,1.62,0,0,1,1-1.7,7.59,7.59,0,0,1,2.88-.49,4.52,4.52,0,0,0,1.1-.12c.27-.08.51-.22.49-.54s-.27-.42-.53-.45c-.53-.06-1.06-.08-1.37.48-.06.1-.14.09-.22.09H16.6c-.23,0-.21-.08-.15-.25A2.3,2.3,0,0,1,17.94,23a7.43,7.43,0,0,1,2.65-.28,6.79,6.79,0,0,1,1.68.22,2.92,2.92,0,0,1,.71.28,1.18,1.18,0,0,1,.61,1.26,22.23,22.23,0,0,1-.69,2.9,1.82,1.82,0,0,0-.1,1.15c0,.14-.06.14-.15.14-.78,0-1.57,0-2.36,0-.16,0-.2-.08-.23-.2S20.05,28.25,20,28.16Zm.53-2.05a4.75,4.75,0,0,1-1.31.23,1.85,1.85,0,0,0-.57.1c-.26.12-.46.29-.43.6s.29.37.54.42A1.42,1.42,0,0,0,20.51,26.11Z"/><path class="cls-2" d="M45.63,28.14a4.06,4.06,0,0,1-3.28.54,1.48,1.48,0,0,1-1.3-1.23,1.61,1.61,0,0,1,1-1.78,7.59,7.59,0,0,1,2.91-.5A4.39,4.39,0,0,0,46.1,25c.26-.08.47-.23.45-.54s-.26-.4-.51-.43c-.54-.07-1.08-.09-1.4.48-.06.09-.14.08-.23.08h-2.2c-.19,0-.22-.05-.15-.22A2.28,2.28,0,0,1,43.74,23,8.35,8.35,0,0,1,48,23c1.06.29,1.36.83,1.14,1.91-.18.92-.46,1.81-.69,2.72a1.46,1.46,0,0,0-.05.9c.05.15,0,.16-.15.16-.79,0-1.58,0-2.37,0a.19.19,0,0,1-.21-.18C45.66,28.38,45.65,28.27,45.63,28.14Zm.47-2a7.47,7.47,0,0,1-1.54.24.94.94,0,0,0-.6.26.45.45,0,0,0,.14.76A1.42,1.42,0,0,0,46.1,26.13Z"/><path class="cls-2" d="M53.3,23.63c.13,0,.18-.09.24-.14a3.07,3.07,0,0,1,2.61-.74c.18,0,.24.1.19.27-.15.51-.29,1-.41,1.54,0,.19-.14.2-.29.16a3.87,3.87,0,0,0-1.27-.07,1.59,1.59,0,0,0-1.48,1.12,24.58,24.58,0,0,0-.69,2.55.39.39,0,0,1-.47.35c-.72,0-1.45,0-2.17,0-.19,0-.24,0-.19-.23.47-1.79.93-3.59,1.39-5.38,0-.14.08-.2.23-.2q1.15,0,2.31,0c.2,0,.2.09.16.23S53.35,23.45,53.3,23.63Z"/></g></svg>