<svg xmlns="http://www.w3.org/2000/svg" viewBox="0 0 63 49"><defs><style>.cls-1{fill:#ffcc02;}.cls-2{fill:#d6162d;}</style></defs><title>CourierPlease</title><g id="Layer_2" data-name="Layer 2"><rect class="cls-1" width="63" height="49"/><path class="cls-2" d="M51.3,22.76A6.06,6.06,0,0,0,50.2,21S43.53,10.55,42.84,9.42c-.22-.36-1.26-2.12-2.48-2.24-.75-.08-1.78,1.24-2.28,1.89s-2.28,2.62-2.28,2.62L29.64,6a.9.9,0,0,0-.87,0c-.49.36-1.22.87-1.22.87S12.91,18.45,12.42,19a2.34,2.34,0,0,0-.82,1.91A4.2,4.2,0,0,0,12,22.54s3.76,8.51,4.17,9.12a2.33,2.33,0,0,0,1.42,1.24,3.19,3.19,0,0,0,1.89-.13l6.07-1.68a13.63,13.63,0,0,1,2.85-.64,3,3,0,0,1,1.87.68s5.38,4.36,6.33,4.93a5.77,5.77,0,0,0,2,.48s2.44,0,4-.18a1.85,1.85,0,0,0,1.53-.81s6.33-9.8,6.87-11A2,2,0,0,0,51.3,22.76Z"/><path class="cls-2" d="M42.83,38.18c-.86,0-2.42,0-3,0a4.13,4.13,0,0,0-1.18.21,1.13,1.13,0,0,0-.48,1,2.6,2.6,0,0,0,.68,1.22,28.19,28.19,0,0,0,2.69,2.45.71.71,0,0,0,.88-.37,20.68,20.68,0,0,0,1.5-3.06c0-.44.1-1-.2-1.3A1.35,1.35,0,0,0,42.83,38.18Z"/></g></svg>