<svg width="54" height="44" viewBox="0 0 54 44" fill="none" xmlns="http://www.w3.org/2000/svg">
<rect width="54" height="44" fill="#FFCC00"/>
<path d="M4 21.1162H10.2207L9.88098 21.5723H4V21.1162Z" fill="#D40511"/>
<path d="M4 20.2699H10.8527L10.5124 20.7254H4V20.2699Z" fill="#D40511"/>
<path d="M4 21.9631H9.58914L9.25088 22.4161H4V21.9631Z" fill="#D40511"/>
<path d="M50 21.5723H43.8035L44.1431 21.1165H50V21.5723Z" fill="#D40511"/>
<path d="M50 22.4161L43.1734 22.4167L43.5116 21.9631H50V22.4161Z" fill="#D40511"/>
<path d="M44.7746 20.2699H50V20.7257L44.4347 20.726L44.7746 20.2699Z" fill="#D40511"/>
<path d="M10.0252 22.4161L12.9772 18.4601H16.6403C17.0452 18.4601 17.0399 18.6117 16.8421 18.8762C16.6411 19.1447 16.2991 19.6065 16.0945 19.8791C15.9906 20.0176 15.8027 20.2699 16.4251 20.2699H21.3326C20.9245 20.8214 19.6006 22.4161 17.2235 22.4161H10.0252Z" fill="#D40511"/>
<path d="M26.9309 20.2696L25.3302 22.4161H21.1075C21.1075 22.4161 22.7075 20.2699 22.7089 20.2699L26.9309 20.2696Z" fill="#D40511"/>
<path d="M33.0372 20.2699L31.4357 22.4161H27.2146C27.2146 22.4161 28.8147 20.2699 28.8161 20.2699H33.0372Z" fill="#D40511"/>
<path d="M34.4104 20.2699C34.4104 20.2699 34.102 20.686 33.9521 20.8858C33.4219 21.5927 33.8905 22.4161 35.621 22.4161H42.4002L44.0014 20.2699H34.4104Z" fill="#D40511"/>
<path d="M12.0895 16L10.6199 17.9696H18.6297C19.0345 17.9696 19.0292 18.1212 18.8314 18.3857C18.6304 18.6539 18.2941 19.121 18.0894 19.3936C17.9855 19.5318 17.7977 19.7841 18.4201 19.7841H21.6955C21.6955 19.7841 22.2235 19.0753 22.666 18.4829C23.2682 17.677 22.7183 16 20.5659 16H12.0895Z" fill="#D40511"/>
<path d="M33.3998 19.7841H23.0717L25.8959 16H30.1172L28.4987 18.1697H30.3828L32.0026 16H36.2232L33.3998 19.7841Z" fill="#D40511"/>
<path d="M42.0693 16L39.2456 19.7841H34.7725C34.7725 19.7841 37.5972 16 37.5986 16H42.0693Z" fill="#D40511"/>
<path d="M19.0774 27.1348V24.1292H21.1088V24.7166H19.7699V25.3314H20.9703V25.8961H19.7699V26.5473H21.1549V27.1347L19.0774 27.1348Z" fill="#D40511"/>
<path d="M21.4089 27.1348L22.1475 25.9781L21.4597 24.8123H22.1937L22.5769 25.5272H22.6507L23.0339 24.8123H23.7357L23.0478 25.9781L23.7865 27.1348H23.0524L22.6184 26.4107H22.5446L22.1106 27.1348H21.4089Z" fill="#D40511"/>
<path d="M24.1096 28V24.8123H24.7421V25.213C24.8068 25.0734 24.8998 24.9641 25.0214 24.8851C25.143 24.8062 25.2823 24.7667 25.4393 24.7667C25.7039 24.7667 25.9109 24.8662 26.0602 25.065C26.2095 25.2639 26.2841 25.5364 26.2841 25.8825V26.0646C26.2841 26.4107 26.2095 26.6833 26.0602 26.882C25.9109 27.0809 25.7039 27.1804 25.4393 27.1804C25.1345 27.1804 24.9145 27.0407 24.7791 26.7613V28L24.1096 28ZM25.1853 25.3223C25.016 25.3223 24.8806 25.3936 24.779 25.5363V26.4152C24.8806 26.5549 25.016 26.6247 25.1853 26.6247C25.3238 26.6247 25.43 26.5754 25.5039 26.4767C25.5778 26.3781 25.6147 26.2362 25.6147 26.0509V25.8961C25.6147 25.7109 25.5778 25.569 25.5039 25.4703C25.43 25.3716 25.3238 25.3223 25.1853 25.3223Z" fill="#D40511"/>
<path d="M26.7919 27.1348V24.8123H27.4246V25.3906C27.4582 25.2874 27.5038 25.1895 27.5605 25.0968C27.6176 25.0043 27.6914 24.9283 27.7824 24.8692C27.873 24.8099 27.9862 24.7804 28.1215 24.7804C28.1494 24.7804 28.1748 24.7812 28.1979 24.7827C28.2207 24.7842 28.2493 24.788 28.2832 24.794V25.4043C28.2585 25.4013 28.2315 25.399 28.2024 25.3974C28.1732 25.396 28.1447 25.3952 28.1171 25.3952C27.9475 25.3952 27.809 25.427 27.7016 25.4908C27.5938 25.5545 27.5136 25.6229 27.4613 25.6957V27.1347L26.7919 27.1348Z" fill="#D40511"/>
<path d="M29.682 27.1894C29.328 27.1894 29.0456 27.0908 28.8348 26.8934C28.6239 26.6961 28.5185 26.4198 28.5185 26.0646V25.8824C28.5185 25.5334 28.6163 25.2586 28.8117 25.0582C29.0071 24.8578 29.2679 24.7576 29.5942 24.7576C29.9235 24.7576 30.1784 24.8578 30.3584 25.0582C30.5384 25.2586 30.6284 25.5364 30.6284 25.8915V26.1739H29.1835C29.2204 26.4988 29.4034 26.6611 29.7328 26.6611C29.8405 26.6611 29.9397 26.646 30.0305 26.6156C30.1213 26.5853 30.2113 26.5412 30.3007 26.4835L30.573 26.898C30.4561 26.986 30.3229 27.0566 30.1736 27.1097C30.0244 27.1628 29.8605 27.1894 29.682 27.1894ZM29.5805 25.2859C29.4481 25.2859 29.3496 25.3277 29.2849 25.4111C29.2204 25.4946 29.1835 25.6123 29.1741 25.764H29.9868C29.9774 25.6123 29.9405 25.4946 29.8758 25.4111C29.8114 25.3277 29.7128 25.2859 29.5805 25.2859Z" fill="#D40511"/>
<path d="M31.8194 27.1894C31.6286 27.1894 31.4593 27.1651 31.3116 27.1166C31.1639 27.068 31.0254 26.9906 30.8961 26.8843L31.1639 26.4608C31.3607 26.6065 31.5763 26.6793 31.8102 26.6793C32.0533 26.6793 32.175 26.6081 32.175 26.4654C32.175 26.3652 32.0902 26.2968 31.9209 26.2604L31.6671 26.2058C31.4547 26.1602 31.2923 26.076 31.1801 25.953C31.0676 25.8301 31.0115 25.676 31.0115 25.4908C31.0115 25.2601 31.0953 25.0802 31.2631 24.9512C31.4308 24.8222 31.6625 24.7576 31.9579 24.7576C32.3057 24.7576 32.6059 24.8472 32.8581 25.0263L32.6043 25.4498C32.435 25.3285 32.2426 25.2676 32.0271 25.2676C31.8056 25.2676 31.6948 25.3345 31.6948 25.4681C31.6948 25.5773 31.7794 25.6502 31.9487 25.6867L32.2073 25.7413C32.6442 25.8354 32.8627 26.0662 32.8627 26.4335C32.8627 26.6734 32.7711 26.8593 32.5881 26.9914C32.4049 27.1234 32.1487 27.1894 31.8194 27.1894Z" fill="#D40511"/>
<path d="M34.0632 27.1894C33.8724 27.1894 33.7032 27.1651 33.5554 27.1166C33.4077 27.068 33.2692 26.9906 33.1399 26.8843L33.4078 26.4608C33.6046 26.6065 33.8201 26.6793 34.054 26.6793C34.2971 26.6793 34.4188 26.6081 34.4188 26.4654C34.4188 26.3652 34.334 26.2968 34.1648 26.2604L33.9109 26.2058C33.6986 26.1602 33.5361 26.076 33.4239 25.953C33.3114 25.8301 33.2553 25.676 33.2553 25.4908C33.2553 25.2601 33.3391 25.0802 33.507 24.9512C33.6746 24.8222 33.9063 24.7576 34.2017 24.7576C34.5495 24.7576 34.8497 24.8472 35.102 25.0263L34.8481 25.4498C34.6789 25.3285 34.4865 25.2676 34.271 25.2676C34.0494 25.2676 33.9386 25.3345 33.9386 25.4681C33.9386 25.5773 34.0233 25.6502 34.1925 25.6867L34.4511 25.7413C34.888 25.8354 35.1066 26.0662 35.1066 26.4335C35.1066 26.6734 35.015 26.8593 34.8319 26.9914C34.6487 27.1234 34.3925 27.1894 34.0632 27.1894Z" fill="#D40511"/>
</svg>
