<?xml version="1.0" encoding="utf-8"?>
<!-- Generator: Adobe Illustrator 25.4.1, SVG Export Plug-In . SVG Version: 6.00 Build 0)  -->
<svg version="1.1" xmlns="http://www.w3.org/2000/svg" xmlns:xlink="http://www.w3.org/1999/xlink" x="0px" y="0px"
	 viewBox="0 0 108.063 49" style="enable-background:new 0 0 108.063 49;" xml:space="preserve">
<style type="text/css">
	.st0{fill:#1A2266;}
	.st1{fill:#FFFFFF;}
	.st2{opacity:0.3;fill:url(#SVGID_1_);}
	.st3{fill:url(#SVGID_00000000939419784753725840000003837078392483485574_);}
	.st4{opacity:0.3;fill:url(#SVGID_00000079467247478889502770000015786747299838412689_);}
	.st5{fill:url(#SVGID_00000152973205033328490160000006176359711320767126_);}
	.st6{opacity:0.3;fill:url(#SVGID_00000089544540857824530550000017185398317095599287_);}
	.st7{opacity:0.3;fill:url(#SVGID_00000036965742190422932740000003463904779437630384_);}
	.st8{fill:url(#SVGID_00000145765273987387663920000009939782790225729668_);}
	.st9{fill:#4CBB17;}
	.st10{opacity:0.3;fill:url(#SVGID_00000140716178779629752770000012518426254701331107_);}
	.st11{fill:url(#SVGID_00000044174144139539355660000004894283428763663792_);}
	.st12{opacity:0.3;fill:url(#SVGID_00000100374467868607434740000014932897891486250664_);}
	.st13{fill:url(#SVGID_00000114765785827735821720000003690462866328726441_);}
	.st14{opacity:0.3;fill:url(#SVGID_00000018940781012380556900000007587773921841898940_);}
	.st15{opacity:0.3;fill:url(#SVGID_00000029017237725839638320000015556671480237896084_);}
	.st16{fill:url(#SVGID_00000162321239633437950610000007453212058087968441_);}
	.st17{opacity:0.3;fill:url(#SVGID_00000041273811476144284460000017771705006808007561_);}
	.st18{fill:url(#SVGID_00000048494623457739654560000013242106294284992401_);}
	.st19{opacity:0.3;fill:url(#SVGID_00000059276587203078580100000001992105248142571402_);}
	.st20{fill:url(#SVGID_00000070092508708961196540000005364460080692764303_);}
	.st21{opacity:0.3;fill:url(#SVGID_00000131350044585828690520000017367103694995699332_);}
	.st22{opacity:0.3;fill:url(#SVGID_00000065066750797553000470000005186311435908347281_);}
	.st23{fill:url(#SVGID_00000066479878130868382210000000800622535215795085_);}
</style>
<g id="Layer_1">
</g>
<g id="Layer_2">
	<g>
		<g>
			<linearGradient id="SVGID_1_" gradientUnits="userSpaceOnUse" x1="24.7893" y1="11.1192" x2="38.2321" y2="11.1192">
				<stop  offset="0.0024" style="stop-color:#4CBB17"/>
				<stop  offset="1" style="stop-color:#B8DDB2"/>
			</linearGradient>
			<path class="st2" d="M24.789,10.799c0,0,6.952,3.994,10.304,3.994s3.136-3.022,3.136-3.022l-2.713-2.345l-5.984-1.981
				L24.789,10.799z"/>
			
				<linearGradient id="SVGID_00000105387881079821003060000008985446999099920312_" gradientUnits="userSpaceOnUse" x1="8.2181" y1="10.3892" x2="36.39" y2="10.3892">
				<stop  offset="0.0024" style="stop-color:#4CBB17"/>
				<stop  offset="1" style="stop-color:#B8DDB2"/>
			</linearGradient>
			<path style="fill:url(#SVGID_00000105387881079821003060000008985446999099920312_);" d="M27.683,5.973c0,0-4.921-0.259-6.534,0
				c-3.108,0.498-16.12,6.64-8.984,8.82c0.644,0.197,2.036,0.14,2.695,0c3.897-0.828,11.924-5.309,15.027-5.309
				c0,0,2.639-0.099,3.512,0c1.327,0.15,3.156,0.722,4.829,2.287C38.229,11.771,34.217,5.973,27.683,5.973z"/>
			<g>
				
					<linearGradient id="SVGID_00000055676282684119850760000009644805051878994595_" gradientUnits="userSpaceOnUse" x1="889.5762" y1="2480.7839" x2="903.0189" y2="2480.7839" gradientTransform="matrix(-1 0 0 -1 913.0764 2518.6624)">
					<stop  offset="0.0024" style="stop-color:#4CBB17"/>
					<stop  offset="1" style="stop-color:#B8DDB2"/>
				</linearGradient>
				<path style="opacity:0.3;fill:url(#SVGID_00000055676282684119850760000009644805051878994595_);" d="M23.5,38.198
					c0,0-6.952-3.994-10.304-3.994s-3.136,3.022-3.136,3.022l2.713,2.345l5.984,1.981L23.5,38.198z"/>
				
					<linearGradient id="SVGID_00000168818220744196051030000004214712720546665402_" gradientUnits="userSpaceOnUse" x1="875.262" y1="2480.0537" x2="903.23" y2="2480.0537" gradientTransform="matrix(-1 0 0 -1 913.0764 2518.6624)">
					<stop  offset="0.0116" style="stop-color:#B8DDB2"/>
					<stop  offset="0.9912" style="stop-color:#4CBB17"/>
				</linearGradient>
				<path style="fill:url(#SVGID_00000168818220744196051030000004214712720546665402_);" d="M20.606,43.025
					c0,0,4.921,0.259,6.534,0c3.108-0.498,16.12-6.64,8.984-8.82c-0.644-0.197-2.036-0.14-2.695,0
					c-3.897,0.828-11.924,5.309-15.027,5.309c0,0-2.639,0.099-3.512,0c-1.327-0.15-3.156-0.722-4.829-2.287
					C10.06,37.226,14.073,43.025,20.606,43.025z"/>
			</g>
			
				<linearGradient id="SVGID_00000158011748584812077830000003478238913155901629_" gradientUnits="userSpaceOnUse" x1="5.8604" y1="21.9022" x2="25.3618" y2="21.9022">
				<stop  offset="0.0024" style="stop-color:#4CBB17"/>
				<stop  offset="1" style="stop-color:#B8DDB2"/>
			</linearGradient>
			<path style="opacity:0.3;fill:url(#SVGID_00000158011748584812077830000003478238913155901629_);" d="M23.767,21.001
				c0,0-14.54-7.986-17.907,0.24v3.898l12.886,1.143l6.615-3.512L23.767,21.001z"/>
			
				<linearGradient id="SVGID_00000073685002735375831410000007236845929301357991_" gradientUnits="userSpaceOnUse" x1="23.0246" y1="27.2924" x2="42.526" y2="27.2924">
				<stop  offset="0.0024" style="stop-color:#4CBB17"/>
				<stop  offset="1" style="stop-color:#B8DDB2"/>
			</linearGradient>
			<path style="opacity:0.3;fill:url(#SVGID_00000073685002735375831410000007236845929301357991_);" d="M24.619,28.193
				c0,0,14.54,7.986,17.907-0.24v-3.898L29.64,22.912l-6.615,3.512L24.619,28.193z"/>
			
				<linearGradient id="SVGID_00000167373499467821125790000004596869788519507347_" gradientUnits="userSpaceOnUse" x1="5.8604" y1="24.687" x2="42.526" y2="24.687">
				<stop  offset="0.0024" style="stop-color:#4CBB17"/>
				<stop  offset="1" style="stop-color:#B8DDB2"/>
			</linearGradient>
			<path style="fill:url(#SVGID_00000167373499467821125790000004596869788519507347_);" d="M5.86,21.241v7.567
				c0,0,0.688,7.457,17.138,0s19.521-1.645,19.521-1.645v-5.922c0,0,0.917-8.816-18.752-0.24C5.86,28.808,5.86,21.241,5.86,21.241z"
				/>
		</g>
		<g>
			<g>
				<path class="st0" d="M61.14,29.018V6.16h4.904c1.158,0,2.19,0.222,3.095,0.664c0.904,0.443,1.619,1.177,2.143,2.202
					c0.524,1.026,0.786,2.424,0.786,4.194c0,1.678-0.262,3.064-0.786,4.159c-0.524,1.095-1.23,1.911-2.119,2.446
					c-0.889,0.536-1.897,0.804-3.023,0.804h-2.238v8.389H61.14z M63.902,17.38h2.023c2.285,0,3.428-1.386,3.428-4.159
					c0-1.444-0.298-2.44-0.893-2.988C67.866,9.685,66.988,9.41,65.83,9.41h-1.928V17.38z"/>
				<path class="st0" d="M78.018,29.438c-0.968,0-1.873-0.355-2.714-1.066c-0.841-0.71-1.524-1.736-2.047-3.076
					c-0.524-1.34-0.786-2.953-0.786-4.841c0-1.91,0.262-3.536,0.786-4.876c0.524-1.34,1.206-2.365,2.047-3.076
					c0.841-0.711,1.746-1.066,2.714-1.066c0.984,0,1.896,0.355,2.738,1.066c0.841,0.711,1.524,1.736,2.047,3.076
					c0.524,1.34,0.786,2.965,0.786,4.876c0,1.887-0.262,3.501-0.786,4.841c-0.524,1.34-1.206,2.365-2.047,3.076
					C79.915,29.082,79.002,29.438,78.018,29.438z M78.018,26.152c0.857,0,1.531-0.524,2.024-1.573
					c0.492-1.048,0.738-2.423,0.738-4.124c0-1.724-0.246-3.111-0.738-4.159c-0.492-1.048-1.167-1.573-2.024-1.573
					c-0.857,0-1.528,0.524-2.011,1.573c-0.484,1.049-0.726,2.435-0.726,4.159c0,1.701,0.242,3.076,0.726,4.124
					C76.491,25.628,77.161,26.152,78.018,26.152z"/>
				<path class="st0" d="M89.088,29.438c-0.794,0-1.587-0.227-2.38-0.682c-0.794-0.454-1.476-1.019-2.047-1.695l1.286-2.586
					c0.524,0.583,1.047,1.048,1.571,1.398c0.524,0.349,1.079,0.524,1.666,0.524c0.634,0,1.103-0.198,1.404-0.594
					c0.301-0.396,0.452-0.885,0.452-1.468c0-0.489-0.123-0.891-0.369-1.206c-0.246-0.315-0.56-0.594-0.94-0.839
					c-0.381-0.245-0.778-0.483-1.19-0.717c-0.508-0.28-1.012-0.623-1.512-1.031c-0.5-0.407-0.909-0.932-1.226-1.573
					c-0.318-0.641-0.476-1.438-0.476-2.394c0-1.515,0.381-2.749,1.143-3.705c0.762-0.955,1.793-1.433,3.095-1.433
					c0.825,0,1.563,0.21,2.214,0.629c0.651,0.419,1.214,0.897,1.69,1.433l-1.262,2.446c-0.413-0.442-0.83-0.798-1.25-1.066
					c-0.42-0.267-0.861-0.402-1.321-0.402c-0.587,0-1.024,0.181-1.309,0.542c-0.286,0.362-0.429,0.81-0.429,1.346
					c0,0.676,0.238,1.188,0.714,1.538c0.476,0.349,1.031,0.688,1.666,1.014c0.539,0.28,1.063,0.624,1.571,1.031
					c0.508,0.408,0.932,0.938,1.274,1.59c0.341,0.653,0.512,1.515,0.512,2.586c0,1.468-0.389,2.721-1.167,3.757
					C91.69,28.92,90.564,29.438,89.088,29.438z"/>
				<path class="st0" d="M99.729,29.438c-1.349,0-2.305-0.577-2.868-1.73c-0.563-1.153-0.845-2.65-0.845-4.491v-8.179h-1.666v-3.006
					l1.809-0.175l0.333-4.684h2.285v4.684h2.976v3.181h-2.976v8.179c0,2.004,0.547,3.006,1.643,3.006c0.206,0,0.42-0.04,0.643-0.122
					c0.222-0.081,0.412-0.169,0.571-0.262l0.476,2.971c-0.318,0.163-0.679,0.309-1.083,0.437
					C100.622,29.373,100.189,29.438,99.729,29.438z"/>
			</g>
			<g>
				<path class="st9" d="M76.811,42.684c-0.62,0-1.176-0.202-1.669-0.605c-0.493-0.403-0.88-0.995-1.162-1.776
					c-0.282-0.78-0.422-1.729-0.422-2.846c0-1.106,0.144-2.055,0.433-2.846c0.289-0.791,0.68-1.396,1.173-1.814
					c0.493-0.419,1.046-0.628,1.658-0.628c0.493,0,0.91,0.132,1.252,0.395c0.341,0.264,0.622,0.561,0.84,0.892l-0.655,1.163
					c-0.176-0.248-0.372-0.458-0.586-0.628s-0.484-0.256-0.808-0.256c-0.612,0-1.107,0.329-1.484,0.985
					c-0.377,0.657-0.565,1.553-0.565,2.691c0,1.158,0.18,2.065,0.539,2.722c0.359,0.656,0.884,0.985,1.574,0.985
					c0.197,0,0.384-0.039,0.56-0.116c0.176-0.078,0.32-0.189,0.433-0.333v-2.187h-1.31v-1.473h2.408v4.466
					c-0.232,0.341-0.54,0.628-0.924,0.861C77.711,42.567,77.283,42.684,76.811,42.684z"/>
				<path class="st9" d="M81.627,42.684c-0.43,0-0.734-0.191-0.913-0.574c-0.18-0.382-0.269-0.905-0.269-1.566v-8.995h1.215v9.088
					c0,0.217,0.028,0.37,0.084,0.458c0.056,0.088,0.116,0.132,0.18,0.132c0.028,0,0.054-0.003,0.079-0.008
					c0.024-0.005,0.061-0.013,0.111-0.023l0.158,1.334c-0.07,0.041-0.16,0.077-0.269,0.109
					C81.893,42.668,81.768,42.684,81.627,42.684z"/>
				<path class="st9" d="M85.43,42.684c-0.43,0-0.831-0.158-1.204-0.473c-0.373-0.315-0.676-0.77-0.908-1.365
					c-0.232-0.594-0.348-1.31-0.348-2.148c0-0.848,0.116-1.569,0.348-2.163c0.232-0.595,0.535-1.049,0.908-1.365
					c0.373-0.315,0.775-0.473,1.204-0.473c0.437,0,0.841,0.158,1.215,0.473c0.373,0.316,0.676,0.77,0.908,1.365
					c0.232,0.595,0.349,1.316,0.349,2.163c0,0.837-0.116,1.553-0.349,2.148c-0.232,0.595-0.535,1.05-0.908,1.365
					C86.271,42.526,85.867,42.684,85.43,42.684z M85.43,41.226c0.38,0,0.679-0.233,0.898-0.698c0.218-0.465,0.327-1.075,0.327-1.83
					c0-0.765-0.109-1.38-0.327-1.845c-0.218-0.465-0.518-0.698-0.898-0.698c-0.38,0-0.678,0.233-0.893,0.698
					c-0.215,0.465-0.322,1.08-0.322,1.845c0,0.755,0.107,1.365,0.322,1.83C84.752,40.993,85.05,41.226,85.43,41.226z"/>
				<path class="st9" d="M91.619,42.684c-0.493,0-1.415-0.186-1.415-0.186h-0.032h-0.106h-0.961V31.549h1.215v2.822l-0.032,1.272
					c0.218-0.279,0.458-0.506,0.718-0.682c0.26-0.176,0.521-0.263,0.781-0.263c0.648,0,1.151,0.352,1.51,1.054
					c0.359,0.703,0.539,1.639,0.539,2.807c0,0.868-0.106,1.61-0.317,2.225c-0.211,0.615-0.484,1.086-0.819,1.411
					C92.368,42.521,92.007,42.684,91.619,42.684z M91.366,41.741c0.345,0,0.634-0.222,0.866-0.667
					c0.232-0.444,0.348-1.626,0.348-2.485c0-0.765-0.088-1.359-0.264-1.783c-0.176-0.424-0.461-0.636-0.855-0.636
					c-0.366,0-0.747,0.284-1.141,0.853v4.347c0.183,0.227,0.331,0.216,0.511,0.314C91.011,41.783,91.211,41.741,91.366,41.741z"/>
				<path class="st9" d="M101.558,42.684c-0.43,0-0.734-0.191-0.913-0.574c-0.18-0.382-0.269-0.905-0.269-1.566v-8.995h1.215v9.088
					c0,0.217,0.028,0.37,0.084,0.458c0.056,0.088,0.116,0.132,0.18,0.132c0.028,0,0.054-0.003,0.079-0.008
					c0.024-0.005,0.061-0.013,0.111-0.023l0.158,1.334c-0.07,0.041-0.16,0.077-0.269,0.109
					C101.824,42.668,101.699,42.684,101.558,42.684z"/>
				<g>
					<path class="st9" d="M96.182,42.684c-0.451,0-0.819-0.206-1.104-0.62c-0.285-0.413-0.428-0.951-0.428-1.613
						c0-0.817,0.243-1.45,0.729-1.9c0.486-0.45,1.26-0.757,2.324-0.923c-0.007-0.403-0.079-0.752-0.216-1.047
						c-0.137-0.295-0.382-0.442-0.734-0.442c-0.253,0-0.502,0.073-0.745,0.217c-0.243,0.145-0.481,0.321-0.713,0.527l-0.444-1.194
						c0.289-0.269,0.614-0.501,0.977-0.698c0.362-0.196,0.748-0.295,1.157-0.295c0.648,0,1.132,0.282,1.452,0.845
						c0.32,0.563,0.481,1.378,0.481,2.442v3.876v0.637h-0.482L97.83,41.66h-0.042c-0.232,0.289-0.481,0.532-0.745,0.729
						C96.779,42.585,96.492,42.684,96.182,42.684z M96.573,41.288c0.211,0,0.403-0.075,0.576-0.225
						c0.173-0.15,0.357-0.354,0.554-0.612v-1.706c-0.704,0.134-1.194,0.333-1.468,0.597c-0.275,0.264-0.412,0.587-0.412,0.969
						c0,0.341,0.07,0.589,0.211,0.744C96.175,41.211,96.354,41.288,96.573,41.288z"/>
					<path class="st9" d="M98.92,42.684c-0.43,0-0.734-0.191-0.913-0.574c-0.18-0.382-0.269-0.905-0.269-1.566v0.061h1.179
						l0.002-0.002c0,0.217,0.062,0.404,0.119,0.492c0.056,0.088,0.116,0.132,0.18,0.132c0.028,0,0.054-0.003,0.079-0.008
						c0.024-0.005,0.061-0.013,0.111-0.023l0.158,1.334c-0.07,0.041-0.16,0.077-0.269,0.109
						C99.185,42.668,99.06,42.684,98.92,42.684z"/>
				</g>
			</g>
			<path class="st9" d="M54.097,29.438c-1.079,0-2.056-0.303-2.928-0.909c-0.873-0.606-1.563-1.479-2.071-2.622
				c-0.508-1.142-0.762-2.518-0.762-4.126c0-1.589,0.258-2.959,0.774-4.112c0.516-1.152,1.186-2.036,2.011-2.652
				c0.825-0.615,1.69-0.924,2.595-0.924c1.063,0,1.952,0.293,2.666,0.879c0.714,0.586,1.254,1.4,1.619,2.443
				c0.365,1.043,0.547,2.249,0.547,3.62c0,0.715-0.04,1.271-0.119,1.668h-7.427c0.127,1.291,0.5,2.294,1.119,3.009
				c0.619,0.715,1.396,1.073,2.333,1.073c0.508,0,0.98-0.094,1.417-0.283c0.436-0.189,0.869-0.452,1.297-0.79l0.928,2.145
				c-0.556,0.457-1.175,0.834-1.857,1.132C55.557,29.289,54.843,29.438,54.097,29.438z M50.979,20.381h5.19
				c0-1.132-0.198-2.021-0.595-2.667c-0.397-0.645-0.992-0.968-1.785-0.968c-0.683,0-1.29,0.313-1.821,0.939
				C51.435,18.31,51.106,19.209,50.979,20.381z"/>
		</g>
	</g>
</g>
</svg>
