<?xml version="1.0" encoding="utf-8"?>
<!-- Generator: Adobe Illustrator 25.4.1, SVG Export Plug-In . SVG Version: 6.00 Build 0)  -->
<svg version="1.1" xmlns="http://www.w3.org/2000/svg" xmlns:xlink="http://www.w3.org/1999/xlink" x="0px" y="0px"
	 viewBox="0 0 63 49" style="enable-background:new 0 0 63 49;" xml:space="preserve">
<style type="text/css">
	.st0{fill:#DC291E;}
	.st1{fill:#FFFFFF;}
	.st2{fill:none;stroke:#FFFFFF;stroke-width:0.1732;stroke-miterlimit:10;}
	.st3{fill:none;stroke:#FFFFFF;stroke-width:0.0809;stroke-miterlimit:10;}
	.st4{fill:#67696B;}
	.st5{fill:none;stroke:#67696B;stroke-width:0.1732;stroke-miterlimit:10;}
</style>
<g id="Layer_1">
</g>
<g id="Layer_2">
	<rect x="-0.002" class="st0" width="63.002" height="48.997"/>
	<g>
		<g>
			<path class="st1" d="M19.449,15.918c-0.114-0.028-0.256-0.028-0.37-0.085c-0.228,0-0.427,0-0.654,0
				c-0.341,0.085-0.683,0.199-0.967,0.398c-0.171,0.171-0.341,0.313-0.512,0.455c0-0.171,0-0.313,0-0.484
				c0-0.142-0.028-0.171-0.171-0.171c-0.541,0-1.053,0-1.593,0c-0.142,0-0.171,0.028-0.171,0.171c0,2.532,0,5.093,0,7.625
				c0,0.142,0.057,0.171,0.171,0.171c0.541,0,1.081,0,1.622,0c0.171,0,0.199-0.028,0.199-0.199c0-1.309,0-2.618,0-3.926
				c0-0.341,0-0.683,0.085-1.024c0.057-0.313,0.171-0.598,0.37-0.854c0.37-0.427,0.854-0.484,1.366-0.341
				c0.085,0.028,0.142,0.028,0.199-0.057c0.285-0.512,0.654-0.996,1.053-1.423C19.876,16.061,19.677,16.004,19.449,15.918z"/>
			<path class="st1" d="M27.331,23.373c0-2.362,0-4.752,0-7.113c0-0.114,0.028-0.199-0.142-0.199c-0.569,0-1.138,0-1.707,0
				c-0.114,0-0.142,0.028-0.142,0.142c0,0.228,0,0.455,0,0.711c-0.057-0.057-0.085-0.085-0.114-0.114
				c-0.028-0.028-0.085-0.057-0.114-0.085c-0.768-0.683-1.679-0.939-2.703-0.825c-0.654,0.085-1.223,0.313-1.707,0.74
				c-0.882,0.74-1.366,1.707-1.48,2.845c-0.028,0.541-0.028,1.11,0.114,1.679c0.228,0.967,0.74,1.764,1.508,2.333
				c0.74,0.569,1.622,0.797,2.561,0.683c0.427-0.085,0.825-0.228,1.223-0.455c0.256-0.142,0.455-0.341,0.74-0.541
				c0,0.256,0,0.484,0,0.711c0,0.085,0,0.114,0.114,0.114c0.569,0,1.167,0,1.736,0c0.085,0,0.114-0.028,0.114-0.114
				C27.302,23.714,27.331,23.544,27.331,23.373z M25.14,21.239c-0.285,0.598-0.768,0.967-1.394,1.11
				c-0.598,0.114-1.138,0-1.622-0.341c-0.541-0.398-0.854-0.939-0.939-1.622c-0.057-0.512,0-0.996,0.199-1.451
				c0.313-0.654,0.797-1.081,1.508-1.195c0.541-0.085,1.053,0,1.508,0.256c0.654,0.398,0.939,0.996,0.939,1.764
				c0,0.057,0,0.142,0,0.199C25.368,20.414,25.311,20.841,25.14,21.239z"/>
			<path class="st1" d="M14.015,21.068c0-1.622,0-3.215,0-4.837c0-0.114-0.028-0.171-0.171-0.171c-0.569,0-1.138,0-1.707,0
				c-0.085,0-0.142,0.028-0.114,0.114c0,0.228,0,0.455,0,0.711c-0.114-0.114-0.228-0.199-0.313-0.285
				c-0.882-0.711-1.906-0.882-2.988-0.654c-0.484,0.114-0.939,0.37-1.337,0.683c-0.512,0.427-0.882,0.939-1.138,1.536
				c-0.171,0.427-0.256,0.882-0.313,1.337c-0.057,0.427-0.057,0.882,0,1.309c0.085,0.654,0.341,1.28,0.74,1.821
				c0.484,0.626,1.053,1.138,1.821,1.394c0.541,0.171,1.053,0.199,1.565,0.142c0.484-0.057,0.91-0.228,1.309-0.484
				c0.228-0.142,0.427-0.341,0.654-0.484c0,0.228,0,0.427,0,0.626c0,0.114,0.028,0.171,0.142,0.171c0.541,0,1.11,0,1.65,0
				c0.142,0,0.171-0.057,0.171-0.171C14.015,22.918,14.015,21.979,14.015,21.068z M11.796,21.296
				c-0.256,0.569-0.74,0.91-1.337,1.024c-0.569,0.142-1.138,0.028-1.622-0.313c-0.484-0.37-0.797-0.854-0.91-1.451
				c-0.057-0.171-0.057-0.341-0.057-0.512c-0.028-0.711,0.199-1.309,0.711-1.793c0.768-0.768,2.105-0.711,2.845,0
				c0.37,0.37,0.541,0.797,0.598,1.309C12.109,20.158,12.052,20.755,11.796,21.296z"/>
			<path class="st1" d="M48.812,22.377c-0.455-0.228-0.91-0.427-1.366-0.654c-0.114-0.057-0.199-0.057-0.313,0.057
				c-0.057,0.057-0.114,0.114-0.171,0.142c-0.37,0.285-0.768,0.427-1.223,0.512c-0.512,0.085-1.024,0.028-1.48-0.199
				c-0.598-0.285-0.967-0.797-1.11-1.451c0-0.199,0.057-0.199,0.171-0.199c0.996,0,1.992,0,2.959,0c0.996,0,1.992,0,2.988,0
				c0.142,0,0.171,0,0.199-0.171c0.028-0.199-0.028-0.398,0-0.598s0-0.37-0.057-0.569c-0.171-0.882-0.541-1.679-1.195-2.305
				c-0.683-0.654-1.536-0.996-2.475-1.053c-0.427-0.028-0.854-0.028-1.28,0.057c-1.024,0.199-1.821,0.74-2.418,1.565
				c-0.37,0.484-0.598,1.053-0.683,1.679c-0.085,0.569-0.114,1.138-0.028,1.707c0.142,0.91,0.569,1.65,1.252,2.276
				c0.74,0.683,1.65,0.967,2.646,1.024c0.455,0.028,0.91-0.028,1.337-0.114c0.967-0.199,1.736-0.711,2.333-1.508
				C48.926,22.491,48.926,22.434,48.812,22.377z M44.914,17.625c0.541-0.085,1.081-0.057,1.565,0.199
				c0.455,0.228,0.797,0.598,0.996,1.081c0.028,0.085,0.028,0.114-0.057,0.114c-1.366,0-2.731,0-4.097,0c0,0,0,0-0.028-0.028
				C43.549,18.251,44.089,17.768,44.914,17.625z"/>
			<path class="st1" d="M57.064,23.828c-0.37-0.512-0.768-1.053-1.138-1.565c-0.569-0.797-1.138-1.593-1.707-2.39
				c-0.057-0.057-0.057-0.114,0-0.171c0.341-0.484,0.683-0.967,1.024-1.423c0.455-0.654,0.939-1.28,1.394-1.935
				c0.057-0.085,0.142-0.142,0.142-0.285c-0.711,0-1.423,0-2.134,0c-0.057,0-0.085,0.028-0.142,0.085
				c-0.455,0.654-0.939,1.309-1.394,1.963c-0.085,0.142-0.142,0.114-0.199,0c-0.455-0.626-0.91-1.28-1.337-1.906
				c-0.028-0.057-0.085-0.114-0.171-0.114c-0.711,0-1.451,0-2.191,0c0.028,0.057,0.028,0.085,0.057,0.114
				c0.341,0.484,0.683,0.967,1.053,1.451c0.512,0.711,0.996,1.394,1.508,2.105c0.057,0.085,0.057,0.142,0,0.228
				c-0.256,0.341-0.484,0.683-0.711,1.024c-0.398,0.569-0.797,1.11-1.195,1.679c-0.313,0.455-0.654,0.91-0.996,1.394
				c0.768,0,1.48,0,2.162,0c0.057,0,0.114-0.028,0.142-0.085c0.569-0.797,1.167-1.593,1.736-2.418c0.085-0.114,0.114-0.057,0.142,0
				c0.569,0.768,1.11,1.565,1.65,2.333c0.085,0.114,0.171,0.171,0.341,0.171c0.626,0,1.28,0,1.906,0
				c0.057,0,0.114,0.028,0.142-0.028C57.149,23.942,57.092,23.885,57.064,23.828z"/>
			<path class="st1" d="M40.362,18.593c-0.028-0.37-0.057-0.74-0.171-1.11c-0.341-1.024-1.28-1.565-2.305-1.622
				c-0.541-0.028-1.081,0.085-1.565,0.313c-0.313,0.142-0.569,0.341-0.825,0.569c-0.171,0.142-0.285,0.341-0.427,0.512
				c-0.996-1.935-3.443-1.764-4.752-0.313c0-0.285,0-0.512,0-0.768c0-0.114-0.028-0.142-0.142-0.142c-0.569,0-1.138,0-1.707,0
				c-0.114,0-0.142,0.028-0.142,0.142c0,2.561,0,5.093,0,7.654c0,0.142,0.057,0.171,0.171,0.171c0.541,0,1.081,0,1.65,0
				c0.142,0,0.171-0.028,0.171-0.171c0-1.252,0-2.475,0-3.727c0-0.341,0.028-0.683,0.114-1.024c0.171-0.626,0.512-1.138,1.167-1.337
				c0.626-0.199,1.28,0.057,1.565,0.711c0.199,0.484,0.228,0.996,0.228,1.48c0,0.199,0,0.427,0,0.626v2.475c0,0.256,0,0.512,0,0.768
				c0,0.028,0,0.057,0,0.057v0.114h1.992v-3.414c0,0,0-0.882,0.057-1.309c0.114-0.683,0.484-1.28,1.223-1.48
				c0.711-0.199,1.366,0.085,1.593,0.854c0.085,0.341,0.142,0.683,0.142,1.024v4.41h1.992v-4.439
				C40.419,19.617,40.39,18.934,40.362,18.593z"/>
		</g>
		<g>
			<path class="st1" d="M37.221,32.129c0.219-0.197,0.376-0.426,0.42-0.728c0.049-0.336,0.116-0.669,0.176-1.004
				c0.064-0.359,0.128-0.719,0.191-1.078c0.004-0.025,0.009-0.05,0.014-0.079c-0.14,0-0.277,0-0.419,0
				c0.05-0.285,0.098-0.564,0.147-0.846c0.015,0,0.027,0,0.04,0c0.117,0,0.234,0,0.351,0c0.022,0,0.032-0.005,0.036-0.029
				c0.033-0.169,0.062-0.339,0.104-0.506c0.025-0.101,0.062-0.201,0.107-0.296c0.121-0.254,0.331-0.394,0.602-0.449
				c0.222-0.045,0.446-0.043,0.67-0.016c0.18,0.022,0.355,0.061,0.525,0.127c0.007,0.003,0.015,0.006,0.026,0.011
				c-0.071,0.271-0.142,0.542-0.213,0.815c-0.057-0.018-0.109-0.038-0.164-0.052c-0.137-0.036-0.275-0.062-0.418-0.06
				c-0.017,0-0.035,0-0.052,0.003c-0.08,0.012-0.105,0.035-0.121,0.115c-0.022,0.11-0.042,0.22-0.064,0.334c0.255,0,0.507,0,0.764,0
				c-0.074,0.285-0.148,0.565-0.221,0.847c-0.015,0-0.029,0-0.043,0c-0.204,0-0.408,0.001-0.612-0.001
				c-0.029,0-0.04,0.009-0.044,0.037c-0.049,0.282-0.098,0.565-0.148,0.847c-0.059,0.337-0.118,0.674-0.178,1.01
				c-0.031,0.174-0.059,0.349-0.097,0.521c-0.063,0.288-0.208,0.535-0.4,0.755c-0.094,0.107-0.195,0.208-0.292,0.311
				c-0.007,0.007-0.015,0.013-0.025,0.021c-0.083-0.076-0.164-0.151-0.246-0.227c-0.132-0.122-0.264-0.243-0.396-0.364
				c-0.006-0.005-0.013-0.009-0.019-0.014C37.221,32.133,37.221,32.131,37.221,32.129z"/>
			<path class="st1" d="M42.077,31.468c-0.285,0-0.566,0-0.85,0c0-0.128,0-0.255,0-0.39c-0.018,0.011-0.031,0.019-0.042,0.027
				c-0.132,0.09-0.262,0.183-0.396,0.27c-0.118,0.076-0.245,0.139-0.388,0.151c-0.18,0.014-0.357-0.005-0.519-0.093
				c-0.172-0.093-0.258-0.247-0.29-0.434c-0.033-0.19-0.016-0.379,0.016-0.566c0.05-0.297,0.103-0.594,0.158-0.891
				c0.037-0.202,0.095-0.398,0.196-0.579c0.161-0.288,0.412-0.456,0.724-0.543c0.183-0.051,0.37-0.072,0.559-0.079
				c0.456-0.017,0.898,0.062,1.332,0.198c0.002,0.001,0.004,0.002,0.01,0.005C42.417,29.517,42.247,30.491,42.077,31.468z
				 M41.462,29.234c-0.013-0.003-0.024-0.007-0.035-0.007c-0.114-0.001-0.229-0.009-0.343,0c-0.137,0.011-0.236,0.083-0.279,0.218
				c-0.016,0.049-0.031,0.1-0.04,0.15c-0.05,0.279-0.098,0.557-0.146,0.836c-0.009,0.052-0.015,0.105-0.021,0.158
				c-0.003,0.029,0.011,0.048,0.041,0.048c0.048,0,0.098,0.003,0.145-0.006c0.166-0.03,0.306-0.114,0.439-0.213
				c0.027-0.02,0.038-0.042,0.044-0.074c0.042-0.245,0.085-0.489,0.128-0.734C41.418,29.486,41.44,29.361,41.462,29.234z"/>
			<g>
				<path class="st3" d="M47.266,31.463c0-0.995-0.053-1.98-0.204-2.962c0.324-0.05,0.643-0.1,0.965-0.15
					c0.105,0.568,0.154,1.138,0.146,1.716c0.017-0.032,0.034-0.063,0.051-0.095c0.159-0.308,0.319-0.616,0.477-0.924
					c0.008-0.016,0.01-0.038,0.006-0.056c-0.032-0.149-0.066-0.298-0.099-0.447c-0.002-0.011-0.004-0.022-0.006-0.038
					c0.313-0.048,0.624-0.096,0.939-0.144c0.101,0.556,0.201,1.11,0.301,1.663c0.003,0,0.005,0,0.008,0.001
					c0.013-0.05,0.026-0.1,0.039-0.15c0.059-0.228,0.118-0.456,0.177-0.684c0.056-0.217,0.053-0.432-0.016-0.646
					c-0.004-0.012-0.007-0.024-0.011-0.041c0.325-0.062,0.649-0.124,0.98-0.187c0.021,0.117,0.043,0.23,0.06,0.344
					c0.043,0.287-0.011,0.561-0.105,0.831c-0.116,0.336-0.232,0.673-0.346,1.01c-0.105,0.309-0.21,0.619-0.314,0.929
					c-0.008,0.024-0.02,0.031-0.045,0.031c-0.345-0.001-0.69-0.001-1.036,0c-0.025,0-0.035-0.007-0.04-0.033
					c-0.061-0.324-0.123-0.647-0.184-0.971c-0.01-0.051-0.019-0.102-0.031-0.162c-0.01,0.016-0.017,0.025-0.022,0.035
					c-0.198,0.365-0.397,0.729-0.595,1.094c-0.014,0.026-0.029,0.038-0.061,0.038c-0.33-0.001-0.66-0.001-0.991-0.001
					C47.297,31.463,47.284,31.463,47.266,31.463z"/>
				<path class="st3" d="M55.748,28.465c0.327-0.048,0.649-0.095,0.982-0.143c0.017,0.088,0.039,0.174,0.048,0.262
					c0.023,0.215,0.015,0.429-0.056,0.634c-0.047,0.137-0.111,0.269-0.171,0.402c-0.266,0.591-0.53,1.183-0.8,1.773
					c-0.119,0.26-0.264,0.507-0.459,0.72c-0.186,0.204-0.413,0.352-0.663,0.466c-0.173,0.08-0.353,0.144-0.538,0.2
					c-0.088-0.27-0.175-0.539-0.264-0.812c0.302-0.108,0.586-0.245,0.806-0.504c-0.037,0-0.065,0-0.093,0c-0.028,0-0.055,0-0.088,0
					c-0.141-0.991-0.282-1.98-0.423-2.975c0.335-0.047,0.668-0.095,1.007-0.143c0.066,0.645,0.132,1.288,0.197,1.931
					c0.002,0,0.005,0,0.007,0.001c0.004-0.009,0.009-0.018,0.013-0.027c0.157-0.372,0.314-0.743,0.469-1.115
					c0.085-0.204,0.091-0.413,0.034-0.626C55.754,28.497,55.752,28.483,55.748,28.465z"/>
				<path class="st3" d="M53.939,28.538c-0.17,0.975-0.339,1.948-0.509,2.923c-0.284,0-0.566,0-0.851,0c0-0.127,0-0.254,0-0.388
					c-0.016,0.01-0.026,0.015-0.036,0.022c-0.134,0.091-0.266,0.186-0.402,0.274c-0.117,0.076-0.243,0.139-0.384,0.15
					c-0.196,0.015-0.387-0.005-0.558-0.114c-0.152-0.096-0.226-0.243-0.255-0.416c-0.032-0.187-0.015-0.374,0.016-0.559
					c0.051-0.299,0.103-0.597,0.158-0.895c0.044-0.237,0.113-0.465,0.251-0.667c0.158-0.232,0.38-0.37,0.645-0.448
					c0.197-0.058,0.399-0.08,0.603-0.086c0.448-0.014,0.882,0.065,1.308,0.197C53.928,28.532,53.931,28.534,53.939,28.538z
					 M52.814,29.224c-0.147-0.014-0.288-0.027-0.429,0.005c-0.114,0.025-0.19,0.094-0.226,0.204
					c-0.02,0.062-0.037,0.127-0.049,0.191c-0.048,0.265-0.093,0.53-0.139,0.796c-0.009,0.053-0.016,0.107-0.021,0.161
					c-0.003,0.03,0.011,0.05,0.043,0.05c0.048-0.001,0.098,0.002,0.145-0.007c0.166-0.031,0.306-0.115,0.439-0.214
					c0.025-0.019,0.036-0.041,0.041-0.071c0.042-0.245,0.086-0.489,0.129-0.734C52.77,29.48,52.791,29.355,52.814,29.224z"/>
			</g>
			<path class="st1" d="M46.639,31.25c-0.199,0.116-0.408,0.193-0.63,0.238c-0.174,0.036-0.35,0.054-0.528,0.035
				c-0.144-0.015-0.28-0.053-0.394-0.147c-0.173-0.142-0.228-0.334-0.199-0.545c0.036-0.268,0.089-0.533,0.136-0.8
				c0.046-0.264,0.094-0.528,0.14-0.792c0-0.002-0.001-0.004-0.002-0.012c-0.14,0-0.282,0-0.428,0
				c0.05-0.281,0.099-0.556,0.148-0.835c0.013,0,0.026,0,0.038,0c0.12,0,0.241-0.001,0.361,0.001c0.027,0,0.035-0.009,0.039-0.034
				c0.036-0.219,0.074-0.437,0.112-0.659c0.342-0.047,0.684-0.094,1.035-0.143c-0.049,0.28-0.097,0.555-0.146,0.835
				c0.235,0,0.466,0,0.702,0c-0.009,0.04-0.017,0.075-0.025,0.11c-0.057,0.229-0.115,0.457-0.17,0.686
				c-0.007,0.029-0.018,0.039-0.048,0.038c-0.19-0.001-0.38,0-0.57-0.001c-0.03,0-0.04,0.01-0.044,0.038
				c-0.08,0.456-0.162,0.912-0.243,1.369c-0.002,0.009-0.002,0.018-0.004,0.033c0.183-0.003,0.342-0.084,0.51-0.145
				C46.5,30.764,46.569,31.006,46.639,31.25z"/>
			<path class="st1" d="M42.242,31.304c0.067-0.257,0.133-0.511,0.2-0.77c0.039,0.013,0.075,0.026,0.11,0.038
				c0.21,0.073,0.424,0.125,0.646,0.133c0.074,0.002,0.148,0,0.222-0.007c0.066-0.006,0.088-0.036,0.108-0.099
				c0.025-0.081,0.001-0.139-0.068-0.18c-0.101-0.061-0.202-0.121-0.305-0.179c-0.134-0.075-0.264-0.153-0.379-0.256
				c-0.167-0.15-0.239-0.335-0.219-0.558c0.017-0.191,0.052-0.377,0.113-0.559c0.091-0.271,0.277-0.436,0.558-0.486
				c0.135-0.024,0.273-0.037,0.41-0.043c0.345-0.017,0.683,0.033,1.013,0.132c0.025,0.008,0.051,0.016,0.076,0.025
				c0.003,0.001,0.005,0.004,0.01,0.008c-0.056,0.259-0.112,0.518-0.17,0.781c-0.018-0.005-0.034-0.008-0.049-0.012
				c-0.276-0.074-0.556-0.122-0.843-0.112c-0.126,0.004-0.133,0.02-0.153,0.153c-0.005,0.037,0.017,0.062,0.045,0.08
				c0.051,0.032,0.103,0.062,0.155,0.092c0.154,0.089,0.31,0.175,0.462,0.267c0.091,0.055,0.173,0.124,0.24,0.209
				c0.077,0.099,0.112,0.213,0.107,0.337c-0.011,0.267-0.064,0.525-0.181,0.767c-0.111,0.23-0.305,0.354-0.546,0.411
				c-0.254,0.059-0.511,0.071-0.769,0.044c-0.262-0.027-0.515-0.089-0.756-0.195C42.269,31.317,42.258,31.312,42.242,31.304z"/>
			<path class="st1" d="M47.885,32.063c0.04,0.005,0.092,0.008,0.143,0.019c0.184,0.041,0.293,0.188,0.269,0.375
				c-0.018,0.141-0.043,0.281-0.077,0.419c-0.049,0.2-0.189,0.309-0.402,0.328c-0.098,0.009-0.196,0.014-0.293-0.014
				c-0.152-0.043-0.25-0.163-0.246-0.321c0.002-0.099,0.022-0.197,0.038-0.295c0.01-0.064,0.023-0.128,0.042-0.189
				c0.059-0.191,0.195-0.287,0.389-0.311C47.79,32.069,47.832,32.068,47.885,32.063z M47.845,32.293
				c-0.13,0-0.213,0.059-0.238,0.179c-0.024,0.118-0.043,0.236-0.062,0.355c-0.011,0.074,0.032,0.133,0.105,0.148
				c0.035,0.007,0.071,0.009,0.107,0.007c0.117-0.005,0.189-0.067,0.211-0.183c0.021-0.11,0.04-0.22,0.058-0.331
				c0.017-0.101-0.035-0.166-0.137-0.175C47.876,32.294,47.862,32.293,47.845,32.293z"/>
			<path class="st1" d="M49.462,32.075c-0.02,0.117-0.04,0.229-0.06,0.342c-0.043,0.243-0.087,0.487-0.128,0.73
				c-0.006,0.033-0.017,0.044-0.051,0.042c-0.061-0.003-0.122-0.001-0.186-0.001c0-0.039,0-0.073,0-0.111
				c-0.048,0.022-0.093,0.044-0.138,0.062c-0.097,0.039-0.196,0.07-0.302,0.071c-0.131,0.001-0.204-0.069-0.204-0.2
				c0-0.06,0.01-0.12,0.02-0.179c0.04-0.237,0.083-0.473,0.124-0.71c0.001-0.003,0.002-0.006,0.004-0.013
				c0.089-0.012,0.179-0.025,0.275-0.038c-0.011,0.067-0.022,0.128-0.032,0.189c-0.036,0.202-0.071,0.405-0.107,0.607
				c-0.012,0.069,0.018,0.099,0.09,0.078c0.075-0.022,0.146-0.056,0.22-0.083c0.057-0.021,0.08-0.058,0.09-0.119
				c0.03-0.2,0.068-0.398,0.102-0.598c0.004-0.026,0.014-0.04,0.042-0.043c0.068-0.007,0.135-0.018,0.203-0.027
				C49.435,32.074,49.446,32.075,49.462,32.075z"/>
			<path class="st1" d="M51.535,32.864c0.018,0.063,0.036,0.125,0.052,0.188c0.002,0.008-0.008,0.023-0.017,0.028
				c-0.122,0.068-0.252,0.112-0.391,0.124c-0.076,0.007-0.156,0.007-0.231-0.006c-0.13-0.022-0.2-0.109-0.196-0.242
				c0.002-0.086,0.018-0.172,0.032-0.257c0.016-0.098,0.031-0.197,0.056-0.293c0.056-0.219,0.196-0.329,0.422-0.337
				c0.062-0.002,0.126,0.001,0.186,0.013c0.109,0.023,0.192,0.083,0.219,0.198c0.028,0.119,0.001,0.226-0.09,0.311
				c-0.085,0.079-0.192,0.119-0.3,0.154c-0.071,0.023-0.144,0.044-0.216,0.063c-0.022,0.006-0.031,0.017-0.033,0.037
				c-0.002,0.017-0.006,0.034-0.008,0.051c-0.006,0.059,0.018,0.087,0.077,0.09c0.088,0.004,0.172-0.018,0.254-0.048
				C51.411,32.916,51.47,32.89,51.535,32.864z M51.074,32.563c0.004,0.004,0.008,0.008,0.012,0.012
				c0.084-0.031,0.17-0.058,0.252-0.094c0.029-0.013,0.056-0.046,0.071-0.076c0.026-0.054-0.002-0.104-0.06-0.121
				c-0.091-0.027-0.194,0.016-0.228,0.104C51.097,32.443,51.089,32.504,51.074,32.563z"/>
			<path class="st1" d="M52.458,33.14c0.017-0.069,0.034-0.133,0.051-0.199c0.057,0.013,0.111,0.031,0.166,0.038
				c0.067,0.009,0.136,0.011,0.204,0.011c0.052,0,0.08-0.025,0.092-0.069c0.018-0.064,0.012-0.097-0.035-0.129
				c-0.049-0.033-0.102-0.058-0.153-0.088c-0.034-0.02-0.068-0.039-0.101-0.061c-0.077-0.052-0.118-0.124-0.105-0.219
				c0.008-0.061,0.019-0.124,0.038-0.183c0.035-0.108,0.122-0.152,0.227-0.167c0.158-0.021,0.314-0.008,0.467,0.038
				c0.005,0.002,0.011,0.004,0.02,0.007c-0.014,0.067-0.029,0.133-0.044,0.203c-0.045-0.009-0.088-0.021-0.131-0.024
				c-0.076-0.007-0.152-0.01-0.228-0.012c-0.037-0.001-0.065,0.016-0.075,0.054c-0.012,0.042-0.024,0.085,0.017,0.118
				c0.021,0.017,0.045,0.032,0.069,0.046c0.064,0.038,0.128,0.074,0.192,0.112c0.095,0.056,0.139,0.136,0.113,0.248
				c-0.007,0.031-0.013,0.063-0.02,0.095c-0.031,0.146-0.123,0.224-0.27,0.243c-0.16,0.02-0.316,0.003-0.468-0.05
				C52.477,33.15,52.469,33.145,52.458,33.14z"/>
			<path class="st1" d="M47.06,32.912c0.008,0.068,0.017,0.132,0.023,0.196c0.001,0.009-0.008,0.025-0.016,0.028
				c-0.165,0.068-0.335,0.101-0.511,0.054c-0.11-0.029-0.175-0.11-0.171-0.223c0.003-0.093,0.019-0.186,0.034-0.278
				c0.018-0.109,0.035-0.219,0.063-0.326c0.047-0.181,0.163-0.271,0.349-0.29c0.117-0.012,0.233-0.008,0.348,0.022
				c0.015,0.004,0.03,0.01,0.049,0.016c-0.019,0.068-0.036,0.133-0.056,0.198c-0.002,0.006-0.022,0.011-0.033,0.008
				c-0.085-0.018-0.171-0.031-0.258-0.017c-0.07,0.011-0.12,0.048-0.137,0.116c-0.022,0.089-0.038,0.181-0.055,0.271
				c-0.012,0.061-0.021,0.123-0.032,0.184c-0.014,0.077,0.013,0.115,0.091,0.105c0.091-0.011,0.181-0.035,0.271-0.054
				C47.031,32.921,47.044,32.916,47.06,32.912z"/>
			<path class="st1" d="M49.765,33.187c-0.09,0-0.177,0-0.27,0c0.009-0.052,0.017-0.101,0.026-0.15
				c0.052-0.296,0.105-0.592,0.156-0.888c0.005-0.028,0.014-0.042,0.044-0.045c0.065-0.008,0.129-0.021,0.199-0.032
				c-0.003,0.053-0.006,0.101-0.009,0.151c0.093-0.053,0.183-0.104,0.281-0.16c0.004,0.041,0.006,0.069,0.008,0.098
				c0.003,0.04,0.006,0.081,0.011,0.121c0.003,0.023-0.004,0.037-0.026,0.049c-0.09,0.052-0.179,0.107-0.269,0.159
				c-0.024,0.014-0.035,0.033-0.04,0.06C49.841,32.761,49.803,32.973,49.765,33.187z"/>
			<path class="st1" d="M52.183,32.071c-0.003,0.055-0.006,0.103-0.009,0.152c0.093-0.053,0.184-0.105,0.281-0.161
				c0.008,0.085,0.015,0.16,0.02,0.235c0.001,0.009-0.012,0.023-0.022,0.029c-0.093,0.057-0.187,0.112-0.279,0.169
				c-0.014,0.009-0.027,0.028-0.03,0.045c-0.038,0.207-0.074,0.414-0.112,0.621c-0.002,0.01-0.015,0.026-0.023,0.026
				c-0.082,0.002-0.164,0.001-0.251,0.001c0.009-0.053,0.018-0.103,0.026-0.152c0.053-0.298,0.106-0.596,0.157-0.894
				c0.004-0.026,0.015-0.034,0.038-0.038C52.046,32.095,52.112,32.083,52.183,32.071z"/>
			<path class="st1" d="M50.21,33.189c0.012-0.069,0.022-0.133,0.033-0.196c0.05-0.285,0.101-0.571,0.152-0.856
				c0.002-0.01,0.011-0.027,0.018-0.028c0.085-0.014,0.171-0.025,0.263-0.038c-0.012,0.068-0.022,0.13-0.033,0.191
				c-0.053,0.299-0.106,0.598-0.158,0.897c-0.004,0.023-0.012,0.031-0.035,0.03C50.372,33.188,50.295,33.189,50.21,33.189z"/>
			<path class="st1" d="M50.429,31.946c0.017-0.098,0.033-0.191,0.05-0.284c0.002-0.01,0.013-0.023,0.021-0.025
				c0.081-0.013,0.162-0.024,0.244-0.035c0.004-0.001,0.009,0.001,0.015,0.002c-0.016,0.094-0.032,0.187-0.05,0.28
				c-0.002,0.01-0.016,0.023-0.026,0.025C50.6,31.922,50.517,31.933,50.429,31.946z"/>
			<path class="st1" d="M56.199,31.691c0,0.126-0.101,0.227-0.227,0.228c-0.127,0.001-0.231-0.103-0.231-0.229
				c0-0.125,0.103-0.227,0.228-0.228C56.098,31.462,56.199,31.563,56.199,31.691z M56.157,31.69c0-0.102-0.084-0.185-0.186-0.185
				c-0.103,0-0.185,0.082-0.186,0.185c0,0.104,0.084,0.188,0.188,0.187C56.075,31.875,56.157,31.792,56.157,31.69z"/>
			<path class="st1" d="M55.872,31.573c0.041,0,0.079,0,0.117,0c0.033,0,0.059,0.013,0.068,0.047c0.009,0.035-0.003,0.06-0.038,0.08
				c-0.004,0.002-0.008,0.004-0.009,0.005c0.021,0.033,0.042,0.065,0.064,0.098c-0.048,0.014-0.052,0.013-0.073-0.027
				c-0.03-0.057-0.039-0.064-0.084-0.061c0,0.03,0,0.061,0,0.093c-0.017,0-0.029,0-0.045,0
				C55.872,31.731,55.872,31.655,55.872,31.573z M55.92,31.607c0,0.027,0,0.048,0,0.072c0.024-0.002,0.045,0,0.064-0.006
				c0.011-0.004,0.025-0.02,0.024-0.031c0-0.01-0.014-0.026-0.025-0.03C55.965,31.606,55.943,31.608,55.92,31.607z"/>
		</g>
		<g>
			<path class="st1" d="M26.487,31.115c-0.081,0-0.151,0-0.24,0c0-0.047,0-0.09,0-0.133c0-0.506,0.004-1.013-0.003-1.519
				c-0.002-0.141-0.019-0.285-0.056-0.42c-0.073-0.27-0.314-0.4-0.569-0.285c-0.237,0.107-0.456,0.257-0.679,0.394
				c-0.022,0.013-0.029,0.063-0.029,0.096c-0.002,0.618-0.001,1.236-0.001,1.862c-0.067,0-0.144,0-0.237,0c0-0.04,0-0.079,0-0.119
				c0-0.525,0.004-1.05-0.003-1.575c-0.002-0.125-0.024-0.254-0.06-0.374c-0.087-0.291-0.361-0.406-0.623-0.254
				c-0.204,0.118-0.395,0.259-0.587,0.396c-0.031,0.022-0.047,0.082-0.047,0.125c-0.003,0.559-0.002,1.118-0.002,1.676
				c0,0.04,0,0.081,0,0.128c-0.084,0-0.157,0-0.241,0c0-0.832,0-1.666,0-2.499c0.161-0.044,0.173-0.037,0.204,0.123
				c0.011,0.055,0.021,0.11,0.032,0.165c0.002,0.01,0.007,0.02,0.016,0.042c0.077-0.053,0.149-0.105,0.223-0.153
				c0.104-0.067,0.207-0.137,0.316-0.194c0.363-0.187,0.726-0.07,0.915,0.289c0.01,0.019,0.022,0.037,0.04,0.067
				c0.081-0.057,0.157-0.11,0.234-0.162c0.181-0.122,0.363-0.246,0.587-0.27c0.385-0.04,0.677,0.108,0.761,0.495
				c0.036,0.163,0.051,0.334,0.053,0.501c0.007,0.502,0.003,1.005,0.002,1.508C26.493,31.051,26.49,31.077,26.487,31.115z"/>
			<path class="st1" d="M20.885,29.866c-0.039,0.231-0.061,0.467-0.122,0.693c-0.094,0.35-0.333,0.567-0.693,0.622
				c-0.172,0.026-0.353,0.032-0.526,0.013c-0.436-0.049-0.694-0.311-0.793-0.729c-0.093-0.396-0.096-0.797-0.001-1.192
				c0.138-0.574,0.531-0.764,1.095-0.744c0.393,0.014,0.725,0.148,0.88,0.543c0.061,0.155,0.088,0.324,0.118,0.488
				c0.018,0.099,0.013,0.201,0.019,0.302C20.871,29.863,20.878,29.865,20.885,29.866z M20.6,29.865
				c-0.014-0.155-0.02-0.316-0.045-0.474c-0.064-0.408-0.277-0.616-0.657-0.647c-0.089-0.007-0.18-0.007-0.27,0.002
				c-0.339,0.035-0.54,0.21-0.62,0.54c-0.09,0.373-0.092,0.75-0.009,1.124c0.086,0.385,0.306,0.568,0.7,0.592
				c0.506,0.031,0.786-0.193,0.86-0.694C20.58,30.164,20.586,30.018,20.6,29.865z"/>
			<path class="st1" d="M21.387,28.603c0.058,0,0.106,0,0.16,0c0.024,0.091,0.046,0.18,0.073,0.283
				c0.099-0.067,0.182-0.138,0.277-0.185c0.136-0.068,0.276-0.136,0.423-0.173c0.228-0.057,0.264-0.015,0.236,0.224
				c-0.064,0-0.13-0.005-0.195,0.001c-0.287,0.024-0.492,0.207-0.702,0.375c-0.026,0.021-0.026,0.083-0.026,0.125
				c-0.002,0.577-0.001,1.154-0.001,1.732c0,0.041,0,0.082,0,0.131c-0.082,0-0.159,0-0.245,0
				C21.387,30.282,21.387,29.448,21.387,28.603z"/>
			<path class="st1" d="M27.227,29.824c-0.019,0.516,0.151,0.898,0.48,1.019c0.415,0.152,0.87,0.042,1.143-0.305
				c0.03,0.013,0.063,0.027,0.095,0.041c0.034,0.015,0.067,0.029,0.109,0.048c-0.11,0.221-0.285,0.356-0.507,0.422
				c-0.297,0.088-0.601,0.088-0.9,0.005c-0.355-0.099-0.545-0.356-0.622-0.701c-0.088-0.388-0.088-0.78-0.001-1.169
				c0.091-0.408,0.339-0.658,0.756-0.73c0.228-0.04,0.457-0.046,0.68,0.022c0.348,0.107,0.533,0.365,0.608,0.703
				c0.041,0.185,0.045,0.378,0.066,0.567c0.011,0.095-0.058,0.078-0.111,0.078c-0.555,0.001-1.111,0-1.666,0
				C27.315,29.824,27.275,29.824,27.227,29.824z M28.873,29.606c-0.018-0.339-0.042-0.673-0.364-0.855
				c-0.316-0.178-0.66-0.155-0.963,0.032c-0.296,0.183-0.305,0.507-0.328,0.823C27.773,29.606,28.315,29.606,28.873,29.606z"/>
			<path class="st1" d="M29.934,31.115c-0.092,0-0.165,0-0.245,0c0-0.84,0-1.673,0-2.512c0.055,0,0.103,0,0.163,0
				c0.021,0.085,0.044,0.174,0.07,0.28c0.057-0.038,0.109-0.071,0.159-0.106c0.17-0.119,0.345-0.225,0.555-0.258
				c0.218-0.034,0.259,0.005,0.22,0.24c-0.061-0.003-0.123-0.013-0.184-0.008c-0.291,0.023-0.499,0.209-0.712,0.378
				c-0.024,0.019-0.024,0.076-0.024,0.115c-0.001,0.577-0.001,1.154-0.001,1.731C29.934,31.019,29.934,31.063,29.934,31.115z"/>
			<path class="st1" d="M32.252,31.115c-0.126-0.01-0.251-0.005-0.369-0.032c-0.202-0.046-0.319-0.227-0.32-0.473
				c-0.002-0.78-0.001-1.56-0.002-2.339c0-0.209,0-0.418,0-0.644c-0.094,0-0.179,0-0.264,0c-0.142,0-0.142,0-0.138-0.143
				c0.001-0.018,0.003-0.037,0.006-0.063c0.214,0,0.425,0,0.647,0c0,0.051,0,0.096,0,0.14c0,0.96,0,1.919,0,2.879
				c0,0.056-0.002,0.113,0.002,0.169c0.01,0.171,0.101,0.258,0.273,0.26c0.052,0.001,0.104,0,0.164,0
				C32.252,30.95,32.252,31.022,32.252,31.115z"/>
			<path class="st1" d="M32.484,32.449c0-0.092,0-0.157,0-0.23c0.145-0.009,0.285-0.017,0.425-0.026
				c0.107-0.007,0.188-0.063,0.228-0.157c0.087-0.202,0.165-0.408,0.24-0.615c0.012-0.032-0.009-0.079-0.023-0.116
				c-0.292-0.808-0.584-1.616-0.877-2.423c-0.009-0.024-0.014-0.049-0.025-0.087c0.075,0,0.143-0.01,0.206,0.004
				c0.032,0.007,0.066,0.052,0.079,0.088c0.193,0.534,0.383,1.069,0.574,1.603c0.067,0.189,0.136,0.377,0.213,0.592
				c0.052-0.141,0.095-0.258,0.137-0.376c0.205-0.577,0.41-1.154,0.615-1.731c0.073-0.206,0.077-0.208,0.316-0.166
				c-0.09,0.251-0.179,0.499-0.27,0.748c-0.281,0.776-0.565,1.551-0.843,2.328c-0.092,0.256-0.202,0.493-0.506,0.537
				C32.816,32.445,32.655,32.441,32.484,32.449z"/>
			<path class="st1" d="M18.872,27.478c-0.011,0.052-0.021,0.096-0.028,0.14c-0.01,0.06-0.043,0.066-0.098,0.06
				c-0.155-0.017-0.312-0.043-0.466-0.033c-0.3,0.019-0.464,0.185-0.494,0.485c-0.013,0.139-0.002,0.281-0.002,0.433
				c0.29,0,0.573,0,0.873,0c-0.018,0.074-0.026,0.136-0.051,0.19c-0.01,0.021-0.057,0.034-0.088,0.034
				c-0.206,0.003-0.412,0.002-0.618,0.002c-0.035,0-0.071,0-0.117,0c0,0.778,0,1.548,0,2.325c-0.087,0-0.164,0-0.254,0
				c0-0.769,0-1.542,0-2.325c-0.103,0-0.194-0.006-0.284,0.002c-0.094,0.008-0.135-0.023-0.12-0.119
				c0.004-0.029,0.003-0.058,0.006-0.1c0.129,0,0.254,0,0.395,0c0-0.116-0.007-0.22,0.002-0.323c0.01-0.12,0.019-0.243,0.053-0.357
				c0.073-0.24,0.245-0.381,0.487-0.436C18.334,27.395,18.598,27.421,18.872,27.478z"/>
		</g>
	</g>
</g>
</svg>
