<svg xmlns="http://www.w3.org/2000/svg" viewBox="0 0 63 49"><defs><style>.cls-1{fill:#43338e;}.cls-1,.cls-2,.cls-3{fill-rule:evenodd;}.cls-2{fill:#d9782d;}.cls-3{fill:#fff;}</style></defs><title>FedEx</title><g id="Layer_2" data-name="Layer 2"><path class="cls-1" d="M.1,0H63V49H.1Z"/><path class="cls-2" d="M50.08,31.41l-2-2.23-2,2.23H42L46,26.86,42,22.31h4.28l2,2.21,1.94-2.21h4.12l-4,4.53,4.09,4.57ZM34,31.41V17.07h8v3.2H37.39v2H42v3.07H37.39v2.83H42v3.2Z"/><path class="cls-3" d="M30.66,17.07v5.87h0a3.4,3.4,0,0,0-2.75-1.15,4.64,4.64,0,0,0-4.46,3.48,4.79,4.79,0,0,0-4.93-3.52,5,5,0,0,0-4.55,2.44V22.31H9.67v-2h4.66v-3.2H5.86V31.41H9.67v-6h3.79a6.2,6.2,0,0,0-.17,1.42,5,5,0,0,0,5.2,5.09,4.91,4.91,0,0,0,4.93-3.25H20.15a1.64,1.64,0,0,1-1.66.82,2,2,0,0,1-1.9-1.95h6.64a4.84,4.84,0,0,0,4.68,4.42,3.27,3.27,0,0,0,2.72-1.45h0v.93H34V17.07Zm-14,8.35a1.83,1.83,0,0,1,1.8-1.5,1.76,1.76,0,0,1,1.82,1.5Zm11.93,3.81a2.18,2.18,0,0,1-2-2.36c0-1.29.67-2.53,2-2.53s1.94,1.24,1.94,2.53S30,29.23,28.62,29.23Z"/><path class="cls-2" d="M55.29,30.49a.93.93,0,0,1,.93-.92h0a.92.92,0,0,1,.92.92h0a.92.92,0,0,1-.91.92h0a.93.93,0,0,1-.93-.92Zm1.69,0a.76.76,0,1,0-.76.76.76.76,0,0,0,.76-.76Zm-1,.06V31h-.17V29.93h.36c.19,0,.4.06.4.3a.26.26,0,0,1-.22.26h0c.15,0,.17.1.18.21a1.65,1.65,0,0,0,.07.32h-.22c0-.06,0-.13,0-.2a.39.39,0,0,0-.06-.23.19.19,0,0,0-.15,0Zm.18-.17c.16,0,.2-.07.2-.16s0-.12-.17-.12H56v.28Z"/></g></svg>