<?xml version="1.0" encoding="utf-8"?>
<!-- Generator: Adobe Illustrator 25.2.1, SVG Export Plug-In . SVG Version: 6.00 Build 0)  -->
<svg version="1.1" xmlns="http://www.w3.org/2000/svg" xmlns:xlink="http://www.w3.org/1999/xlink" x="0px" y="0px"
	 viewBox="0 0 63 49" style="enable-background:new 0 0 63 49;" xml:space="preserve">
<style type="text/css">
	.st0{fill:#FFFFFF;}
	.st1{fill:#F2CF1D;}
	.st2{fill:#49608C;}
</style>
<g id="Layer_1">
</g>
<g id="Layer_2">
	<rect x="0" class="st2" width="63" height="49"/>
	<g>
		<path class="st0" d="M38.912,7.166c-0.623-0.005-1.246,0.044-1.861,0.147c-18.735,3-13.36,31.003-22.188,32.423
			c-0.38,0.064-0.768,0.064-1.148,0c-0.014,0.305,0.003,0.61,0.052,0.911c0.319,2.007,2.05,2.702,3.937,2.396
			C28.91,41.229,21.55,11.72,38.912,7.166z"/>
		<path class="st1" d="M34.513,31.482c-7.131,1.14-7.973,4.969-9.557,7.934c7.174-5.836,14.914-2.758,15.739-9.929
			c-0.98,1.049-2.59,1.446-4.114,1.692C35.856,31.297,35.152,31.383,34.513,31.482z"/>
		<path class="st1" d="M26.519,32.147c5.379-4.796,18.13-4.455,18.592-11.837C41.308,23.557,31.742,21.618,26.519,32.147z"/>
		<path class="st0" d="M27.926,24.23c5.5-4.071,17.012-3.289,18.778-10.878C40.993,16.352,32.946,14.228,27.926,24.23z"/>
		<path class="st1" d="M45.223,7.118c-0.73,0.117-1.463,0.212-2.158,0.324c-5.18,0.829-9.851,3.933-12.014,8.672
			c4.472-3.674,17.181-2.612,18.264-10.257C48.042,6.53,46.654,6.957,45.223,7.118z"/>
	</g>
</g>
</svg>
