<svg id="Layer_1" data-name="Layer 1" xmlns="http://www.w3.org/2000/svg" viewBox="0 0 20 15"><defs><style>.cls-1{fill:#009570;}.cls-2{fill:#2b3477;}.cls-3{fill:#fff;}</style></defs><title>hkpost-mini</title><rect class="cls-1" width="20" height="15"/><g id="logo"><g id="cn"><path class="cls-2" d="M11.36,9.21a1.65,1.65,0,0,1-.74-.52h.65v-.2h-.9V8.26l.71-.09L11,8l-1.53.19.07.16.63-.05v.23H9.32v.2H10a1.59,1.59,0,0,1-.79.51l.13.18.28-.12c0,.27,0,.54,0,.8,0,.08,0,.11.11.11h1c.19,0,.24-.05.24-.24V9.25l.29.13Zm-1.2-.46v.42H9.74A1.4,1.4,0,0,0,10.16,8.75Zm.5,1.23H9.79v-.2h.73l.12-.19H9.79V9.34h.88c.05,0,.07,0,.07.07a4,4,0,0,0,0,.49C10.74,10,10.72,10,10.66,10Zm-.29-.81V8.75h0s0,0,.06,0a2.28,2.28,0,0,0,.33.39Z"/><path class="cls-2" d="M15,8.24l.48-.09A.23.23,0,0,0,15.21,8c-.13,0-.27,0-.4.05l-.57.07c.07.1.14.18.27.13a.88.88,0,0,1,.17,0s.09,0,.08.06,0,.13-.07.12h-.35c-.08,0-.07.05-.06.09s0,.12.05.1.1,0,.09.1,0,.18-.18.19-.05.07-.06.11,0,.09.06.09.18,0,.18.18v.06c0,.06,0,.09-.08.08s-.06.06-.07.11,0,.09.08.09h.35s.06,0,.06.06v.09c0,.07,0,.1-.08.1l-.4,0c0,.06.05.1.06.14a.07.07,0,0,0,.1,0c.3,0,.6-.09.91-.12.11,0,.13-.06.12-.16s0-.05-.07,0l-.31.05c-.16,0-.15,0-.16-.12s0-.09.1-.09h.39c.07,0,.05,0,.05-.08s0-.1-.05-.11-.15,0-.15-.17,0,0,0,0,0-.12.11-.11.07,0,.09,0a.13.13,0,0,0-.1-.18c-.08,0-.11,0-.1-.09s0-.13,0-.18.09,0,.14,0,.07-.06.07-.11,0-.08-.08-.08H15s-.1,0-.09-.06S14.9,8.25,15,8.24Zm-.34.4c.05,0,.09,0,.08.06v.12s0,.11-.07.11-.07,0-.07-.11V8.7S14.63,8.63,14.68,8.64Zm0,.8c-.06,0-.07,0-.07-.07a.75.75,0,0,0,0-.15c0-.05,0-.1.08-.1s.07.05.07.1v.15C14.77,9.43,14.74,9.44,14.68,9.44Zm.33,0c-.06,0-.08,0-.07-.08V9.22c0-.06,0-.11.07-.11s.07.06.07.11v.15C15.09,9.42,15.07,9.44,15,9.44Zm0-.81c.09,0,.07.06.07.11v.12c0,.06,0,.07-.06.07s-.09,0-.08-.07a.48.48,0,0,1,0-.12C14.94,8.69,14.91,8.64,15,8.63Z"/><path class="cls-2" d="M16.15,8.8a.14.14,0,0,1,0-.15c.05-.18.09-.36.14-.53s0-.06-.05-.06h-.59s0,0,0,.06v2s0,.05,0,.07a.12.12,0,0,0,.17-.1V8.42c0-.17,0-.17.17-.17s.07,0,.06.07-.05.26-.07.39a.11.11,0,0,0,0,.13c.06.08.13.15.19.24a.23.23,0,0,1-.16.36h-.16c.07.22.23.25.38.09l0,0c.15-.27.17-.39,0-.61A.81.81,0,0,0,16.15,8.8Z"/><path class="cls-2" d="M13.77,9.36A1.73,1.73,0,0,1,13.46,9s0-.07,0-.07h.16c.07,0,.09,0,.09-.09s0-.11-.11-.1h-.15c-.09,0-.12,0-.12-.11s0-.18.19-.19c0,0,.07,0,.08,0a.38.38,0,0,0,0-.15s-.06,0-.09,0c-.18,0-.18,0-.18-.18h0c0-.08,0-.09-.1-.09s-.09,0-.09.09,0,.18-.18.18-.21,0-.2-.19S12.75,8,12.7,8s-.1,0-.1.08,0,.19-.2.19h0c-.07,0-.08,0-.08.09s0,.11.08.1.22,0,.21.22v0c0,.05,0,.06-.06.06h-.27c-.07,0-.06,0-.06.08s0,.11.06.11h.2c.07,0,.08,0,0,.07a1.37,1.37,0,0,1-.33.35s-.09,0,0,.07.07.17.17.08a1.9,1.9,0,0,0,.18-.2V10c0,.13.06.19.19.19h.79c.07,0,.11-.07.11-.16s-.07,0-.1,0h-.71c-.06,0-.09,0-.08-.09V9.43c0-.06,0-.08.07-.07h.42c.07,0,.09,0,.09.08a.09.09,0,0,0,0,.07c0,.07,0,.1-.09.09H12.9c-.11,0-.08.1-.09.16s0,0,.07,0h.46c.07,0,.08,0,.08-.08V9.3l.22.2c.09.1.11,0,.15-.05S13.81,9.38,13.77,9.36Zm-1-.83c0-.06,0-.08.07-.08s.2,0,.3,0,0,0,0,0,0,.15,0,.23,0,.06,0,.06H13c-.16,0-.2,0-.21-.08A.33.33,0,0,1,12.75,8.53Zm-.13.65c.05-.08.12-.13.13-.21s0,0,.05,0h.38a.06.06,0,0,1,.07,0,1.76,1.76,0,0,1,.12.2Z"/><path class="cls-2" d="M12,9.23s-.06,0-.08,0l-.24.67s0,.09,0,.1.12.09.16,0,.15-.45.23-.68v0C12.1,9.23,12,9.25,12,9.23Z"/><path class="cls-2" d="M12,8.15c-.11-.08-.11-.08-.2,0s-.05.05,0,.08l.3.21s0,0,.07,0a.54.54,0,0,0,.09-.12l0,0Z"/><path class="cls-2" d="M12.12,8.81l-.27-.18,0,0a.54.54,0,0,0-.09.12s0,0,0,.06l.19.13c.11.08.11.07.19,0S12.15,8.83,12.12,8.81Z"/><path class="cls-2" d="M18.44,9.66a.11.11,0,0,1,0-.14,2,2,0,0,0,.21-.81c0-.06,0-.06.07-.06s.07-.07.08-.11,0-.09-.08-.09h-.51c-.07,0-.08,0-.07-.08a1,1,0,0,0,0-.29c0-.06,0-.11-.07-.1s-.13,0-.13.09a2.67,2.67,0,0,1-.24,1.15c0,.08,0,.09.05.12s.08,0,.11-.07.12.17.19.25,0,.08,0,.13a1.16,1.16,0,0,1-.51.37c.11.16.11.17.27.08a1.5,1.5,0,0,0,.43-.36,2,2,0,0,0,.33.32c.18.14.12.13.28,0v0A2.05,2.05,0,0,1,18.44,9.66Zm-.2-.21A3.1,3.1,0,0,0,18,9.11.09.09,0,0,1,18,9l.12-.34a0,0,0,0,1,0,0,.92.92,0,0,1,.33,0,.17.17,0,0,1,0,.07A1.68,1.68,0,0,1,18.24,9.45Z"/><path class="cls-2" d="M17.64,8.31V8.12H16.59v.19H17V9.69l-.23.06V8.7h-.2V10h0l1.05-.29v-.2l-.41.1v-.6h.36l.05-.16h-.41V8.32Z"/></g><g id="post"><path class="cls-3" d="M14.81,6a.66.66,0,0,0-.56-1c-.35,0-.71,0-1.07,0-.07,0-.07,0-.07.09v.94c0,.31,0,.61,0,.92,0,.09,0,.11.11.1h.31c.07,0,.1,0,.1-.09s0-.33,0-.49,0-.08.08-.08h.5A.62.62,0,0,0,14.81,6Zm-.66,0a1.93,1.93,0,0,1-.48,0s0,0,0-.06V5.48c0-.05,0-.07.07-.07h.41a.24.24,0,0,1,.24.24C14.37,5.85,14.3,6,14.15,6Z"/><path class="cls-3" d="M17.65,7.06a.74.74,0,0,0,.21-.13.44.44,0,0,0-.06-.69,1.23,1.23,0,0,0-.56-.18c-.06,0-.15,0-.15-.1s.08-.1.15-.11a.78.78,0,0,1,.34.05l.16.07.12-.29-.09-.06a.89.89,0,0,0-.81,0,.43.43,0,0,0-.28.29.41.41,0,0,0,.2.53,2.49,2.49,0,0,0,.47.12c.08,0,.17,0,.17.13s-.08.12-.2.11h0a3.27,3.27,0,0,1-.59-.16l-.12.31A2.05,2.05,0,0,0,17.65,7.06Z"/><path class="cls-3" d="M18.66,6.58V6.16c0-.11,0-.15,0-.17h.22L19,5.7h-.3l0,0a.18.18,0,0,1,0-.06V5.12l-.45.25v.32H18L17.91,6h.26l0,0v.65a.85.85,0,0,0,0,.13.27.27,0,0,0,.21.23.92.92,0,0,0,.29,0h.16l.1-.32h-.16C18.69,6.74,18.66,6.71,18.66,6.58Z"/><path class="cls-3" d="M15.71,5.49a.83.83,0,0,0-.81.81.81.81,0,0,0,1.61,0A.82.82,0,0,0,15.71,5.49Zm.33,1a.34.34,0,0,1-.66,0,.46.46,0,0,1,.29-.64h.07A.47.47,0,0,1,16,6.48Z"/></g><g id="hongkong"><path class="cls-2" d="M2.9,6.19,3.26,5c0-.1.07-.17.19-.16a.06.06,0,0,0,.07,0H2.87s-.05,0-.05,0,0,0,.05,0,.12,0,.11.07a.59.59,0,0,1,0,.13l-.18.63c0,.06,0,.07-.09.07H1.86c-.07,0-.08,0-.06-.08C1.88,5.45,2,5.23,2,5a.16.16,0,0,1,.17-.12s.08,0,.08,0H1.62s0,0,0,0,0,0,0,0,.13,0,.1.16a.45.45,0,0,1,0,.11c-.15.5-.29,1-.45,1.48-.08.25-.24.22-.24.22v0h.65a0,0,0,0,1,0,0c-.17,0-.18,0-.13-.2s.14-.47.22-.71c0,0,0-.06.09-.06h.79c.06,0,.08,0,.06.08l-.2.67c-.05.16-.09.22-.25.22v0H2.9v0s-.21,0-.14-.23S2.86,6.33,2.9,6.19Z"/><path class="cls-2" d="M7.17,5.72s.12,0,.11-.06-.07,0-.11,0a.44.44,0,0,1-.28,0,.57.57,0,0,0-.44-.06.55.55,0,0,0-.4.35.39.39,0,0,0,.16.46s0,0,0,.07l-.15.12c-.07.06,0,.13,0,.18l.1,0A1,1,0,0,0,5.93,7a.29.29,0,0,0,.12.52.88.88,0,0,0,.27.06A.82.82,0,0,0,7,7.32a.32.32,0,0,0-.12-.54A1.21,1.21,0,0,0,6.6,6.7l-.28-.11s-.08,0,0-.09,0-.1.1-.08A.54.54,0,0,0,7.06,6a.5.5,0,0,0,0-.27Zm-.9,1.13h.07L6.76,7c.14.08.15.19,0,.29a.65.65,0,0,1-.44.12.81.81,0,0,1-.25,0A.23.23,0,0,1,6,7,1,1,0,0,1,6.27,6.85Zm.39-.58a.23.23,0,0,1-.29.06c-.1,0-.11-.13-.11-.25a.61.61,0,0,1,.16-.37.23.23,0,0,1,.27-.1c.11,0,.13.14.13.24A.61.61,0,0,1,6.66,6.27Z"/><path class="cls-2" d="M12.46,5.72s.12,0,.11-.06-.07,0-.11,0a.44.44,0,0,1-.28,0,.57.57,0,0,0-.44-.06.55.55,0,0,0-.4.35.39.39,0,0,0,.16.46s0,0,0,.07a.57.57,0,0,0-.15.12c-.07.06-.06.13,0,.18l.1,0a1,1,0,0,0-.26.16.29.29,0,0,0,.12.52.88.88,0,0,0,.27.06.8.8,0,0,0,.64-.21.31.31,0,0,0-.11-.54,1.21,1.21,0,0,0-.25-.08l-.29-.11s-.07,0,0-.09,0-.1.11-.08A.54.54,0,0,0,12.35,6a.63.63,0,0,0,0-.27Zm-.9,1.13h.07l.42.18c.14.08.15.19,0,.29a.68.68,0,0,1-.45.12.8.8,0,0,1-.24,0,.24.24,0,0,1-.17-.19A.25.25,0,0,1,11.32,7,1.41,1.41,0,0,1,11.56,6.85ZM12,6.27a.23.23,0,0,1-.29.06c-.1,0-.11-.13-.11-.25a.61.61,0,0,1,.16-.37.23.23,0,0,1,.27-.1c.11,0,.13.14.13.24A.61.61,0,0,1,12,6.27Z"/><path class="cls-2" d="M8,6.41l-.14-.33A.08.08,0,0,1,7.9,6l.38-.26a.61.61,0,0,1,.21-.11s.06,0,0,0,0,0,0,0H8.1s-.08,0-.08,0,0,0,.07,0,.06,0,.07,0a.06.06,0,0,1,0,.07l-.59.45.1-.36c.09-.3.17-.6.26-.89,0,0,0-.08,0-.08h-.3s-.06,0-.06,0c.2,0,.22.06.15.25s-.1.34-.16.51c-.12.39-.25.77-.37,1.16,0,0,0,.06,0,.09a.18.18,0,0,0,.25-.13c0-.13.07-.25.09-.38a.2.2,0,0,1,.14-.13s0,.06.07.1a3.3,3.3,0,0,0,.18.32.49.49,0,0,0,.53.2C8.12,6.71,8.12,6.71,8,6.41Z"/><path class="cls-2" d="M9.14,5.51a.88.88,0,0,0-.72.71.54.54,0,0,0,.54.7.8.8,0,0,0,.81-.84A.52.52,0,0,0,9.14,5.51Zm.42.5a1.17,1.17,0,0,1-.22.61.41.41,0,0,1-.46.2.26.26,0,0,1-.21-.19,1,1,0,0,1,.34-1l.09,0a.32.32,0,0,1,.34,0C9.56,5.72,9.57,5.84,9.56,6Z"/><path class="cls-2" d="M3.84,5.51a.91.91,0,0,0-.73.71.55.55,0,0,0,.55.7.8.8,0,0,0,.81-.84A.52.52,0,0,0,3.84,5.51Zm.42.5A1.17,1.17,0,0,1,4,6.62a.42.42,0,0,1-.46.2.26.26,0,0,1-.22-.19,1,1,0,0,1,.34-1l.09,0a.32.32,0,0,1,.34,0C4.25,5.72,4.27,5.84,4.26,6Z"/><path class="cls-2" d="M11.19,6.52s0,0,0,0,0,0-.06,0a.46.46,0,0,1-.21.14s-.06,0-.08,0,0,0,0-.08l.3-.8c0-.12,0-.2-.14-.19a.48.48,0,0,0-.25.09,2.37,2.37,0,0,0-.38.33s0,.06-.07,0,0-.06,0-.1,0-.19.09-.3,0-.08-.06-.08h-.26s-.07,0-.09,0h.06c.12,0,.15,0,.12.16a.19.19,0,0,1,0,.08l-.28.91c0,.13,0,.13.1.13a.09.09,0,0,0,.08-.07c0-.1.07-.19.12-.3a1.52,1.52,0,0,1,.46-.65.37.37,0,0,1,.14-.07c.09,0,.12,0,.09.1-.08.3-.15.52-.24.79,0,.06,0,.13,0,.17s.12,0,.18,0A1.44,1.44,0,0,0,11.19,6.52Z"/><path class="cls-2" d="M5.87,6.52a0,0,0,0,0,0,0s0,0,0,0a.52.52,0,0,1-.21.14s-.06,0-.09,0,0,0,0-.08c.1-.27.21-.53.31-.8s0-.2-.14-.19a.42.42,0,0,0-.25.09A2.37,2.37,0,0,0,5.06,6S5,6,5,6,5,6,5,5.92s0-.19.08-.3,0-.08-.06-.08H4.75a.07.07,0,0,0-.08,0h.06c.12,0,.14,0,.12.16a.31.31,0,0,0,0,.08c-.1.3-.19.61-.28.91,0,.13,0,.13.09.13a.1.1,0,0,0,.09-.07l.11-.3a1.61,1.61,0,0,1,.46-.65.46.46,0,0,1,.14-.07c.1,0,.12,0,.1.1-.08.3-.16.52-.24.79,0,.06,0,.13,0,.17s.12,0,.18,0A1.34,1.34,0,0,0,5.87,6.52Z"/></g></g></svg>