<?xml version="1.0" encoding="utf-8"?>
<!-- Generator: Adobe Illustrator 25.4.1, SVG Export Plug-In . SVG Version: 6.00 Build 0)  -->
<svg version="1.1" xmlns="http://www.w3.org/2000/svg" xmlns:xlink="http://www.w3.org/1999/xlink" x="0px" y="0px"
	 viewBox="0 0 63 49" style="enable-background:new 0 0 63 49;" xml:space="preserve">
<style type="text/css">
	.st0{fill:#FFFFFF;}
</style>
<g id="Layer_1">
</g>
<g id="Layer_2">
	<rect x="-0.002" width="63.002" height="48.997"/>
</g>
<g id="Layer_3">
	<g>
		<path class="st0" d="M14.784,23.596c-0.501-0.272-0.903-0.459-1.274-0.696c-1.427-0.91-2.424-2.189-3.025-3.754
			c-1.091-2.842-0.961-5.66,0.375-8.388c1.234-2.521,3.39-3.87,6.044-4.51c1.241-0.299,2.51-0.387,3.784-0.388
			c7.183-0.003,14.367-0.003,21.55,0c1.253,0.001,2.498,0.105,3.725,0.372c4.127,0.896,6.814,4.005,7.146,8.225
			c0.142,1.809-0.1,3.541-0.879,5.184c-0.806,1.7-2.027,2.995-3.762,3.774c-0.083,0.037-0.157,0.094-0.301,0.182
			c0.388,0.1,0.696,0.168,0.997,0.259c2.152,0.648,3.752,1.988,4.653,4.029c1.42,3.216,1.473,6.482-0.163,9.638
			c-1.572,3.034-4.139,4.79-7.522,5.267c-1.273,0.179-2.572,0.249-3.859,0.253c-7.385,0.02-14.77,0.01-22.155-0.001
			c-1.515-0.002-3.023-0.107-4.502-0.473c-4.224-1.048-7.35-4.911-7.49-9.261c-0.05-1.542,0.06-3.064,0.599-4.53
			c1.003-2.725,2.873-4.471,5.738-5.1C14.538,23.663,14.609,23.642,14.784,23.596z M25.857,26.272
			c-0.114-0.018-0.191-0.04-0.268-0.04c-1.553-0.001-3.107-0.025-4.66,0.01c-1.211,0.028-2.414,0.159-3.565,0.588
			c-1.768,0.66-2.874,1.895-3.229,3.756c-0.101,0.531-0.135,1.081-0.145,1.623c-0.057,3.028,1.999,5.455,5.008,5.86
			c2.247,0.303,4.509,0.136,6.766,0.125c0.019,0,0.038-0.014,0.094-0.036C25.857,34.21,25.857,30.247,25.857,26.272z M37.082,26.281
			c0,3.974,0,7.933,0,11.92c0.202,0.009,0.359,0.022,0.517,0.022c1.231,0.002,2.461,0.019,3.692-0.005
			c0.865-0.017,1.736-0.038,2.594-0.146c2.422-0.304,4.303-1.959,4.888-4.257c0.295-1.157,0.232-2.321-0.028-3.475
			c-0.358-1.589-1.312-2.696-2.789-3.356c-0.817-0.365-1.68-0.608-2.569-0.639c-2.015-0.069-4.031-0.081-6.047-0.113
			C37.263,26.232,37.186,26.261,37.082,26.281z M37.035,21.401c1.348,0,2.637,0.015,3.926-0.007
			c0.623-0.011,1.252-0.049,1.866-0.149c1.424-0.231,2.634-0.874,3.539-2.02c1.067-1.351,1.237-2.903,0.934-4.532
			c-0.322-1.73-1.338-2.919-2.989-3.502c-0.676-0.238-1.405-0.406-2.118-0.441c-1.59-0.08-3.186-0.058-4.779-0.073
			c-0.116-0.001-0.231,0.032-0.379,0.054C37.035,14.272,37.035,17.793,37.035,21.401z M25.912,10.722
			c-0.167-0.018-0.303-0.045-0.439-0.046c-1.069-0.003-2.138-0.022-3.206,0.006c-0.804,0.021-1.614,0.052-2.409,0.166
			c-2.363,0.342-3.901,1.819-4.267,4.061c-0.068,0.415-0.082,0.844-0.074,1.265c0.037,1.884,0.88,3.314,2.478,4.301
			c1.024,0.633,2.158,0.881,3.345,0.903c1.371,0.025,2.742,0.022,4.112,0.026c0.152,0,0.304-0.035,0.46-0.055
			C25.912,17.786,25.912,14.267,25.912,10.722z"/>
	</g>
</g>
</svg>
