<svg width="54" height="44" viewBox="0 0 54 44" fill="none" xmlns="http://www.w3.org/2000/svg">
<rect width="54" height="44" fill="#185D83"/>
<path fill-rule="evenodd" clip-rule="evenodd" d="M36.0434 9.03043C33.8845 7.04785 30.6948 6 26.8193 6H19.2297H16.6573H14.7671V7.87422V10.8633V22.7226C18.5714 22.7114 21.6473 21.254 22.4592 20.8309L23.2912 18.3855L28.558 15.2781L22.411 17.6737L19.1829 15.2025L33.8659 12.4627L27.5256 21.6109L25.0101 19.7259L22.6754 21.6028C21.6668 22.829 18.9038 25.7719 14.7671 26.985V37.9697C14.8144 38.0417 22.9757 37.9618 23.0186 37.9697V27.8853H26.774C30.6429 27.8853 33.8336 26.8521 36 24.8972C38.115 22.9895 39.2329 20.2464 39.2329 16.965C39.2329 13.6902 38.1298 10.9465 36.0434 9.03043Z" fill="#00E796"/>
</svg>
