<svg xmlns="http://www.w3.org/2000/svg" viewBox="0 0 63 49"><defs><style>.cls-1{fill:#00529c;}.cls-2{fill:#fff;}.cls-3{fill:#ef3929;}</style></defs><title>Purolator</title><g id="Layer_2" data-name="Layer 2"><rect class="cls-1" width="63" height="49"/><path class="cls-2" d="M29.53,38.34c.11-.27.2-.53.31-.78Q36,24.45,42.07,11.34a1.16,1.16,0,0,1,1.24-.81c3.19,0,6.37,0,9.69,0-.13.32-.21.57-.32.8Q47.1,23.29,41.5,35.22a6.12,6.12,0,0,1-1.45,2.1,4.19,4.19,0,0,1-2.29,1c-2.65.13-5.3.06-8,.07A1,1,0,0,1,29.53,38.34Z"/><path class="cls-3" d="M38.83,10.61l-3.39,7.28c-3.07,6.57-6.16,13.13-9.2,19.72a1.24,1.24,0,0,1-1.38.86c-1.22-.06-2.44,0-3.79,0,.26-.59.46-1.07.68-1.54q5.43-11.62,10.86-23.26a4.64,4.64,0,0,1,3.51-3A18.67,18.67,0,0,1,38.83,10.61Z"/><path class="cls-2" d="M23.27,25.94,18.56,36c-.29-.26-.5-.43-.69-.62L10.65,28.2c-.43-.42-.81-.86-.57-1.53s.84-.82,1.49-.82H22.46C22.68,25.85,22.9,25.9,23.27,25.94Z"/></g></svg>