<?xml version="1.0" encoding="utf-8"?>
<!-- Generator: Adobe Illustrator 22.1.0, SVG Export Plug-In . SVG Version: 6.00 Build 0)  -->
<svg version="1.1" id="Layer_1" xmlns="http://www.w3.org/2000/svg" xmlns:xlink="http://www.w3.org/1999/xlink" x="0px" y="0px"
	 viewBox="0 0 20 15" style="enable-background:new 0 0 20 15;" xml:space="preserve">
<style type="text/css">
	.st0{fill:#AEC438;}
	.st1{fill:#FFFFFF;}
</style>
<rect class="st0" width="20" height="15"/>
<path class="st1" d="M11.3,13.5c0-2.1,0-4.1,0-6.2c1,0.9,2.1,1.7,3.1,2.6c0-0.1,0-0.1-0.1-0.1c-0.8-0.9-1.5-1.8-2.3-2.7
	c-0.1-0.1-0.1-0.2-0.2-0.2c0,0,0,0,0-0.1c0,0,0,0,0.1,0c0.7-0.1,1.4-0.1,2.1-0.2c0.1,0,0.2,0,0.3,0c-0.1,0-0.1,0-0.2,0
	c-0.5,0-1-0.1-1.5-0.1c-0.3,0-0.5-0.1-0.8-0.1c0,0,0,0,0,0c0,0,0,0,0-0.1c0.2-0.2,0.4-0.5,0.6-0.7c0.7-0.8,1.3-1.6,2-2.3
	c0,0,0,0,0,0c0,0,0,0,0,0c-1,0.9-2.1,1.8-3.1,2.6C11.2,4.8,11.1,4,11,3.2c0,0,0,0,0,0c-0.1,0.8-0.2,1.7-0.2,2.5
	C9.7,4.8,8.7,3.9,7.6,3c0,0,0,0,0,0c0.9,1,1.7,2.1,2.6,3.1c-2.1,0-4.1,0-6.2,0C4.1,6,4.3,5.9,4.4,5.8c1-1,1.9-1.9,2.9-2.9
	C7.7,2.5,8.2,2,8.6,1.6c0,0,0.1-0.1,0.2-0.1c2.4,0,4.7,0,7.1,0c0.1,0,0.1,0,0.1,0.1c0,2.4,0,4.7,0,7.1c0,0.1,0,0.1-0.1,0.2
	c-0.7,0.7-1.4,1.5-2.2,2.2C13,11.8,12.2,12.6,11.3,13.5C11.4,13.4,11.4,13.5,11.3,13.5z"/>
</svg>
