<?xml version="1.0" encoding="utf-8"?>
<!-- Generator: Adobe Illustrator 22.1.0, SVG Export Plug-In . SVG Version: 6.00 Build 0)  -->
<svg version="1.1" id="Layer_1" xmlns="http://www.w3.org/2000/svg" xmlns:xlink="http://www.w3.org/1999/xlink" x="0px" y="0px"
	 viewBox="0 0 20 15" style="enable-background:new 0 0 20 15;" xml:space="preserve">
<style type="text/css">
	.st0{fill:#F26924;}
	.st1{fill:#FED9BE;}
	.st2{fill:#FFFFFF;}
</style>
<rect x="0" y="0" class="st0" width="20" height="15"/>
<g>
	<path class="st1" d="M14,7.2c-1.1-2-2.3-4-3.4-5.9C10.5,1.2,10.3,1,10.2,1C8.8,1,7.5,1,6,1c0.1,0.2,0.1,0.3,0.2,0.4
		c1.1,1.8,2.1,3.7,3.2,5.5c0.1,0.2,0.2,0.4,0.2,0.6c1.5,0,3,0,4.5,0C14.1,7.4,14,7.3,14,7.2z"/>
	<path class="st2" d="M9.5,7.5c0,0.2-0.1,0.3-0.2,0.5c-1,1.7-1.9,3.3-2.9,5c-0.2,0.3-0.4,0.6-0.5,1C6,14,6.1,14,6.1,14
		c1.4,0,2.7,0,4.1,0c0.2,0,0.4-0.2,0.5-0.3c1.1-1.9,2.3-3.9,3.4-5.8c0.1-0.1,0.1-0.2,0.1-0.4C12.6,7.5,11.1,7.5,9.5,7.5z"/>
</g>
</svg>
