<?xml version="1.0" encoding="utf-8"?>
<!-- Generator: Adobe Illustrator 22.1.0, SVG Export Plug-In . SVG Version: 6.00 Build 0)  -->
<svg version="1.1" id="Layer_1" xmlns="http://www.w3.org/2000/svg" xmlns:xlink="http://www.w3.org/1999/xlink" x="0px" y="0px"
	 viewBox="0 0 20 15" style="enable-background:new 0 0 20 15;" xml:space="preserve">
<style type="text/css">
	.st0{fill:#FFFFFF;}
	.st1{fill:#CD2830;}
</style>
<rect width="20" height="15"/>
<g id="Logo_1_">
	<g id="symbol">
		<path class="st0" d="M5.32,12.57c0.41-0.32,0.81-0.63,1.21-0.94c2.18,1.27,4.86,1.21,6.94,0c0.4,0.31,0.8,0.62,1.21,0.94
			c-1.09,0.73-2.26,1.19-3.55,1.36C9.03,14.2,7.1,13.74,5.32,12.57z"/>
		<path class="st0" d="M14.68,2.43c-0.41,0.32-0.81,0.63-1.2,0.94c-2.32-1.24-4.63-1.24-6.96,0c-0.39-0.3-0.79-0.61-1.2-0.94
			C6.59,1.58,7.98,1.1,9.5,1.01C11.38,0.91,13.1,1.38,14.68,2.43z"/>
		<path class="st0" d="M15.07,12.18c-0.32-0.41-0.63-0.81-0.94-1.21c0.61-1.07,0.93-2.22,0.93-3.46c0-1.24-0.31-2.39-0.93-3.47
			c0.31-0.4,0.62-0.8,0.94-1.21c0.74,1.1,1.21,2.3,1.37,3.61C16.69,8.51,16.23,10.42,15.07,12.18z"/>
		<path class="st0" d="M5.86,10.98c-0.3,0.39-0.61,0.79-0.93,1.19c-1.82-2.57-2.01-6.44,0-9.34c0.09,0.12,0.19,0.23,0.28,0.35
			c0.21,0.27,0.41,0.53,0.62,0.8c0.03,0.03,0.04,0.06,0.01,0.11C5.44,4.8,5.17,5.56,5.03,6.38C4.95,6.89,4.92,7.41,4.95,7.93
			C5,8.66,5.15,9.36,5.43,10.04C5.56,10.36,5.71,10.66,5.86,10.98z"/>
		<path class="st0" d="M6.12,8.79c0.1,0.09,0.2,0.19,0.3,0.28c0.4,0.35,0.87,0.53,1.4,0.52c0.21,0,0.41-0.04,0.57-0.2
			c0.2-0.2,0.28-0.67,0-0.96C8.23,8.26,8.03,8.15,7.82,8.04C7.53,7.89,7.23,7.75,6.95,7.59c-0.3-0.17-0.55-0.4-0.7-0.72
			C5.97,6.24,6.14,5.49,6.71,5.05c0.28-0.22,0.6-0.34,0.96-0.39c0.39-0.05,0.78-0.02,1.16,0.08c0.22,0.06,0.42,0.15,0.6,0.29
			C9.45,5.05,9.46,5.08,9.46,5.1c0,0.34,0,0.68,0,1.02c0,0.01,0,0.01-0.01,0.03c-0.05-0.04-0.1-0.08-0.15-0.11
			C8.8,5.68,8.24,5.54,7.63,5.71c-0.28,0.08-0.42,0.3-0.39,0.57c0.02,0.17,0.14,0.28,0.27,0.37C7.7,6.77,7.9,6.87,8.1,6.98
			C8.44,7.16,8.78,7.34,9.06,7.6c0.43,0.39,0.66,0.86,0.62,1.44C9.66,9.46,9.51,9.85,9.2,10.15c-0.31,0.3-0.69,0.44-1.12,0.47
			C7.71,10.64,7.35,10.61,7,10.5c-0.3-0.09-0.58-0.23-0.84-0.42c-0.02-0.02-0.04-0.05-0.04-0.07C6.12,9.61,6.12,9.2,6.12,8.79
			C6.12,8.79,6.12,8.79,6.12,8.79z"/>
		<path class="st0" d="M11.42,10.65c-0.38,0-0.74,0-1.12,0c0-0.03,0-0.05,0-0.08c0-1.83,0-3.66,0-5.49c0-0.06,0.02-0.09,0.07-0.11
			c0.45-0.16,0.9-0.27,1.37-0.32c0.61-0.07,1.22-0.04,1.8,0.2c0.1,0.04,0.2,0.1,0.3,0.15c0.02,0.01,0.05,0.05,0.05,0.07
			c0,0.34,0,0.69,0,1.03c0,0,0,0.01-0.01,0.02c-0.01-0.01-0.03-0.01-0.04-0.02c-0.32-0.24-0.69-0.35-1.08-0.41
			c-0.42-0.06-0.84-0.04-1.25,0.1c-0.06,0.02-0.08,0.04-0.08,0.1c0,1.55,0,3.11,0,4.66C11.42,10.6,11.42,10.62,11.42,10.65z"/>
		<path class="st1" d="M13.35,7.63c0,0.38-0.31,0.68-0.68,0.68c-0.38,0-0.68-0.3-0.68-0.68c0-0.38,0.31-0.68,0.69-0.68
			C13.06,6.95,13.35,7.24,13.35,7.63z"/>
	</g>
</g>
</svg>
