<svg id="Layer_1" data-name="Layer 1" xmlns="http://www.w3.org/2000/svg" viewBox="0 0 20 15"><defs><style>.cls-1{fill:#3b83c5;}.cls-2{fill:#fff;}.cls-3{fill:#787878;}</style></defs><title>skypostal-mini</title><rect class="cls-1" width="20" height="15"/><path class="cls-2" d="M4.14,9.76a.47.47,0,0,0-.38-.17c-.22,0-.33.09-.33.21s.17.17.36.19.63.13.63.51-.31.5-.66.5a.66.66,0,0,1-.69-.39l.25-.13a.44.44,0,0,0,.44.25c.19,0,.37-.06.37-.23s-.16-.21-.37-.24-.62-.12-.62-.47.32-.46.61-.46a.64.64,0,0,1,.62.31Z"/><path class="cls-2" d="M5.94,9.39l-.7.76.76.79v0H5.63L5,10.26V11h-.3V9.38H5v.67l.6-.67h.37Z"/><path class="cls-2" d="M6.83,10l.42-.65h.36L7,10.31V11H6.69v-.65l-.61-.92h.35Z"/><path class="cls-2" d="M8.51,10.49H8.06V11h-.3V9.38h.75A.56.56,0,1,1,8.51,10.49Zm-.45-.27h.45a.28.28,0,1,0,0-.56H8.06Z"/><path class="cls-2" d="M10.86,10.18a.81.81,0,1,1-1.62,0,.81.81,0,1,1,1.62,0Zm-1.33,0a.5.5,0,0,0,.52.53.51.51,0,0,0,.52-.54.52.52,0,1,0-1,0Z"/><path class="cls-2" d="M12.12,9.76a.46.46,0,0,0-.38-.17c-.22,0-.32.09-.32.21s.16.17.35.19.64.13.64.51-.32.5-.67.5a.66.66,0,0,1-.69-.39l.25-.13a.44.44,0,0,0,.45.25c.18,0,.36-.06.36-.23s-.16-.21-.37-.24-.62-.12-.62-.47.32-.46.62-.46a.65.65,0,0,1,.62.31Z"/><path class="cls-2" d="M13.06,9.65h-.5V9.38h1.3v.27h-.5V11h-.3Z"/><path class="cls-2" d="M15.18,10.66h-.82l-.14.3H13.9l.71-1.58h.32L15.64,11h-.32Zm-.41-.95-.29.67h.58Z"/><path class="cls-2" d="M16.12,9.38v1.3h.81V11H15.82V9.38Z"/><path class="cls-2" d="M9.82,8.34a2,2,0,0,0,.21-.2.85.85,0,0,0,.14-1,2.55,2.55,0,0,0-.59-.76l-.74-.68a1.35,1.35,0,0,1-.39-.55.67.67,0,0,1,.1-.68A1.6,1.6,0,0,1,9.16,4c0,.05,0,.08,0,.12a.93.93,0,0,0,.34,1.08,2.58,2.58,0,0,0,.82.39A9.23,9.23,0,0,1,11.34,6a1.93,1.93,0,0,1,.67.45.59.59,0,0,1,.19.41.69.69,0,0,1-.08.28,2.3,2.3,0,0,1-1.59,1.22,2.05,2.05,0,0,1-.7,0Z"/><path class="cls-3" d="M8.23,7.24a1.81,1.81,0,0,1,0-.43s0,0,.07,0A4.37,4.37,0,0,0,8.83,7a1.21,1.21,0,0,0,1,0s.06,0,.09,0a.84.84,0,0,1-.11,1.11.46.46,0,0,1-.47.11,2.3,2.3,0,0,1-1-.63A.48.48,0,0,1,8.23,7.24Z"/><path class="cls-2" d="M12.12,5.16a3.32,3.32,0,0,0-1.36-.52,1,1,0,0,1-.28-.1.45.45,0,0,1-.18-.18c-.09-.2,0-.34.2-.36a1.24,1.24,0,0,1,.57.11,1.92,1.92,0,0,1,1,1l0,0Z"/><path class="cls-2" d="M8.09,7.2s0,0,0,0A1.37,1.37,0,0,1,8,6a.57.57,0,0,1,.15-.23.15.15,0,0,1,.23,0A.26.26,0,0,1,8.43,6a.71.71,0,0,1-.09.28,2.57,2.57,0,0,0-.25.9Z"/><path class="cls-3" d="M9.27,4.83a.89.89,0,0,1,0-.68c0-.1.1-.13.22-.11a.56.56,0,0,1,.35.2A1.45,1.45,0,0,1,10,4.5c0,.06,0,.06-.05.07a1.22,1.22,0,0,0-.49.12A1,1,0,0,0,9.27,4.83Z"/><path class="cls-3" d="M11.11,4.88a2,2,0,0,1,.42.12,3,3,0,0,1,.47.24.53.53,0,0,1,.2.22.22.22,0,0,1,0,.14.11.11,0,0,1-.12.09.6.6,0,0,1-.23-.1,4.16,4.16,0,0,1-.7-.63l0,0A0,0,0,0,1,11.11,4.88Z"/><path class="cls-2" d="M12.13,5.14a0,0,0,0,1,0,0h0Z"/></svg>