<svg id="Layer_1" data-name="Layer 1" xmlns="http://www.w3.org/2000/svg" viewBox="0 0 20 15"><defs><style>.cls-1{fill:#ee6924;}.cls-2{fill:#221511;}.cls-3{fill:#fff;}</style></defs><title>tnt-mini</title><rect class="cls-1" width="20" height="15"/><g id="Logo"><g id="shadow"><path class="cls-2" d="M14.23,10.37a7.44,7.44,0,0,0,.81.22,3.19,3.19,0,0,0,2.67-5.51s-.06,0-.06-.08.09,0,.13.06a3.1,3.1,0,0,1,1.11,3.28,3.05,3.05,0,0,1-2.48,2.36A3,3,0,0,1,14.23,10.37Z"/><path class="cls-2" d="M8.7,10.43a4.56,4.56,0,0,1,.53.13,3.2,3.2,0,0,0,3.41-1.5A.76.76,0,0,1,12.72,9a1,1,0,0,1,.15.27,3.27,3.27,0,0,1-1.35,1.23,3.19,3.19,0,0,1-2.75,0Z"/><path class="cls-2" d="M12.78,5.78s0,.11-.06.12-.06-.05-.08-.08a3.2,3.2,0,0,0-.59-.73S12,5.05,12,5s.14.08.21.13A3.65,3.65,0,0,1,12.78,5.78Z"/><path class="cls-2" d="M7.12,5.78l-.07.15A3.86,3.86,0,0,0,6.33,5a.21.21,0,0,1,.15.07A3.48,3.48,0,0,1,7.12,5.78Z"/><path class="cls-2" d="M16.58,5.23c-.18,0-.35-.07-.52-.09a2.45,2.45,0,0,0-2,4.15s.09.07.11.13a.73.73,0,0,1-.3-.22,2.46,2.46,0,0,1,2.7-4S16.57,5.22,16.58,5.23Z"/><path class="cls-2" d="M5.12,5.17c-.11,0-.21,0-.32,0A2.46,2.46,0,0,0,2,7.64a2.37,2.37,0,0,0,.74,1.67s.08,0,.09.11-.07,0-.1-.05A2.34,2.34,0,0,1,1.79,7,2.36,2.36,0,0,1,3.51,5.08a2.38,2.38,0,0,1,1.56,0S5.12,5.15,5.12,5.17Z"/><path class="cls-2" d="M3,6.79c.22,0,.44,0,.66,0s.08.07.07.13H3.11C3,6.92,3,6.88,3,6.79Z"/><path class="cls-2" d="M10.85,5.21s0,0,0,0a2.45,2.45,0,0,0-3.12,2,2.41,2.41,0,0,0,.72,2.1s.06,0,.06.1A1.18,1.18,0,0,1,8,9.05,2.45,2.45,0,0,1,9,5.13a2.57,2.57,0,0,1,1.71,0S10.83,5.16,10.85,5.21Z"/><path class="cls-2" d="M4,8.92a1.94,1.94,0,0,1,.59,0c.11,0,.15,0,.15-.16,0-.61,0-1.22,0-1.83,0-.12,0-.15.15-.14s.45,0,.68,0,.14,0,.13-.13,0-.36,0-.54c.23,0,.23,0,.23.23s0,.29,0,.43,0,.16-.14.15H5.06c-.1,0-.13,0-.13.12,0,.63,0,1.25,0,1.87,0,.11,0,.15-.14.14H4.08C4,9,3.94,9,4,8.92Z"/><path class="cls-2" d="M15.3,8.93a1.52,1.52,0,0,1,.52,0c.21,0,.21,0,.21-.21,0-.6,0-1.19,0-1.79,0-.11,0-.14.14-.13s.47,0,.7,0,.12,0,.12-.13a3.39,3.39,0,0,1,0-.55c.22,0,.22,0,.22.24s0,.3,0,.46,0,.12-.12.11h-.69c-.14,0-.16,0-.15.16,0,.61,0,1.22,0,1.83,0,.12,0,.15-.14.14H15.4C15.31,9,15.29,9,15.3,8.93Z"/><path class="cls-2" d="M10.57,8.93c0-.06.09,0,.13,0h.46c.12,0,.15,0,.15-.14,0-.44,0-.87,0-1.31V6.26s0-.11,0-.16.05,0,.07,0,.15,0,.15.15c0,.88,0,1.76,0,2.65,0,.1,0,.15-.14.14h-.64A.19.19,0,0,1,10.57,8.93Z"/><path class="cls-2" d="M8.67,8.91a1.89,1.89,0,0,1,.53,0c.13,0,.16,0,.16-.17,0-.42,0-.84,0-1.3a1.22,1.22,0,0,1,.28.43c-.06,0,0,.09,0,.13v.92c0,.09,0,.14-.12.13H8.79C8.69,9,8.66,9,8.67,8.91Z"/><path class="cls-2" d="M10.39,7.23a.18.18,0,0,1,0,.2l-1-1.32a.18.18,0,0,1,.22.1Z"/><path class="cls-2" d="M2.93,10.38a2.64,2.64,0,0,1,.46.13A3.2,3.2,0,0,0,7,9.06L7,9a.84.84,0,0,1,.16.27,3.17,3.17,0,0,1-1.93,1.43A3.13,3.13,0,0,1,2.93,10.38Z"/><path class="cls-2" d="M14.34,6.79l.65,0c.1,0,.1.07,0,.14h-.59C14.35,6.92,14.33,6.87,14.34,6.79Z"/></g><g id="foreground"><path class="cls-3" d="M2.93,10.38A3.27,3.27,0,0,1,1.07,8.09,3.17,3.17,0,0,1,3.2,4.4a3.14,3.14,0,0,1,2.67.29A1.68,1.68,0,0,1,6.33,5a3.86,3.86,0,0,1,.72.91l.07-.15A3.32,3.32,0,0,1,8.49,4.55a3.2,3.2,0,0,1,1.81-.28A3.39,3.39,0,0,1,12,5s0,.06.07.09a3.2,3.2,0,0,1,.59.73s0,.09.08.08.06-.07.06-.12c.16-.18.28-.39.46-.57A3.21,3.21,0,0,1,16,4.27,3.32,3.32,0,0,1,17.65,5s0,.06.06.08A3.19,3.19,0,0,1,15,10.59a7.44,7.44,0,0,1-.81-.22,3.35,3.35,0,0,1-1.31-1.11l-.05,0A1,1,0,0,0,12.72,9a.76.76,0,0,0-.08.11,3.2,3.2,0,0,1-3.41,1.5,4.56,4.56,0,0,0-.53-.13s0,0,0,0h0a1.76,1.76,0,0,1-.57-.31,3.46,3.46,0,0,1-.91-.88A.84.84,0,0,0,7,9L7,9.06a3.2,3.2,0,0,1-3.58,1.45A2.64,2.64,0,0,0,2.93,10.38Zm-.11-1s0,0,0,0a1.25,1.25,0,0,0,.35.21A2.45,2.45,0,0,0,6.45,6.41,2.38,2.38,0,0,0,5.12,5.17s0,0,0,0a2.38,2.38,0,0,0-1.56,0A2.36,2.36,0,0,0,1.79,7a2.34,2.34,0,0,0,.93,2.37s.06.06.1.05Zm5.64,0c.08.05.15.12.23.16a2.42,2.42,0,0,0,2.05.15A2.46,2.46,0,0,0,12,6.21a2.28,2.28,0,0,0-1.16-1s-.07-.06-.12-.08A2.57,2.57,0,0,0,9,5.13,2.45,2.45,0,0,0,8,9.05,1.18,1.18,0,0,0,8.46,9.42Zm5.68,0a1.77,1.77,0,0,0,.22.16,2.45,2.45,0,0,0,3.49-3,2.34,2.34,0,0,0-1.27-1.35s0,0,0,0a2.46,2.46,0,0,0-2.7,4A.73.73,0,0,0,14.14,9.42Z"/><path class="cls-3" d="M4,8.92c-.22,0-.22,0-.22-.28,0-.58,0-1.15,0-1.73,0-.06,0-.14-.07-.13s-.44,0-.66,0-.22,0-.22-.26,0-.28,0-.41S2.8,6,2.92,6H5.51c.12,0,.15,0,.15.14s0,.36,0,.54,0,.14-.13.13-.45,0-.68,0-.15,0-.15.14c0,.61,0,1.22,0,1.83,0,.12,0,.15-.15.16A1.94,1.94,0,0,0,4,8.92Z"/><path class="cls-3" d="M15.3,8.93c-.23,0-.23,0-.23-.31V7.07a.23.23,0,0,0,0-.16c.05-.07.05-.14,0-.14l-.65,0c-.23,0-.23,0-.23-.27V6.07c0-.08,0-.11.11-.11h2.66C17,6,17,6,17,6.1a3.39,3.39,0,0,0,0,.55c0,.09,0,.13-.12.13s-.46,0-.7,0-.14,0-.14.13c0,.6,0,1.19,0,1.79,0,.21,0,.2-.21.21A1.52,1.52,0,0,0,15.3,8.93Z"/><path class="cls-3" d="M10.39,7.23c0-.3,0-.6,0-.9s0-.37.37-.37h.39c.11,0,.17,0,.17.14s0,.11,0,.16V7.44c0,.44,0,.87,0,1.31,0,.11,0,.15-.15.14H10.7s-.1,0-.13,0-.24-.14-.32-.26L9.73,8s-.05-.09-.1-.09a1.22,1.22,0,0,0-.28-.43c0,.46,0,.88,0,1.3,0,.13,0,.17-.16.17a1.89,1.89,0,0,0-.53,0c-.22,0-.22,0-.22-.28V6.11c0-.11,0-.15.15-.15h.59a.22.22,0,0,1,.24.15l1,1.32A.18.18,0,0,0,10.39,7.23Z"/></g></g></svg>