<?xml version="1.0" encoding="UTF-8"?>
<svg width="40px" height="30px" viewBox="0 0 40 30" version="1.1" xmlns="http://www.w3.org/2000/svg" xmlns:xlink="http://www.w3.org/1999/xlink">
    <!-- Generator: Sketch 52.5 (67469) - http://www.bohemiancoding.com/sketch -->
    <title>usps-mini</title>
    <desc>Created with Sketch.</desc>
    <g id="Page-1" stroke="none" stroke-width="1" fill="none" fill-rule="evenodd">
        <g id="usps-mini" fill-rule="nonzero">
            <g id="Group">
                <path d="M3.55271368e-15,8.34 L3.55271368e-15,27.18 C0.22,27.08 0.38,27 0.54,26.92 C4.56,24.94 8.6,22.98 12.6,20.96 C18.6,17.92 24.64,14.96 31.34,13.7 C31.52,13.66 31.8,13.64 31.8,13.4 C31.8,13.14 31.52,13.12 31.3,13.1 C30.26,13.04 29.2,13.1 28.18,13.3 C24.4,14.06 20.8,15.38 17.32,17 C16.94,17.18 16.78,17.2 16.64,16.72 C16,14.66 15.34,12.6 14.64,10.56 C14.46,10 14.6,9.92 15.16,9.92 C19.76,9.94 24.34,9.92 28.94,9.92 C29.12,9.92 29.38,10.06 29.46,9.8 C29.54,9.54 29.32,9.36 29.12,9.24 C28.66,8.96 28.14,8.84 27.62,8.74 C25.3,8.34 22.94,8.34 20.6,8.34 C15.24,8.36 5.34,8.36 8.8817842e-15,8.34 L3.55271368e-15,1.7 C3.55271368e-15,1.7 18.64,5.52 25.16,6.84 C26.66,7.16 28.32,7.18 29.58,8.02 C30.72,8.76 31.86,8.72 33.06,8.82 C33.26,8.84 33.48,8.84 33.7,8.86 C34.92,9.02 35.52,9.72 35.46,10.94 C35.38,12.26 34.78,13.38 34.18,14.52 C34,14.92 33.66,15.22 33.26,15.36 C25.5,18.4 17.74,21.42 9.98,24.46 C7.72,25.34 2.26,27.46 3.55271368e-15,28.34 L3.55271368e-15,8.34 Z M31.42,10.06 C30.92,10.06 30.52,10.06 30.14,10.08 C29.94,10.06 29.76,10.1 29.62,10.28 C29.32,10.68 28.88,10.84 28.4,10.9 C27.8,10.98 27.22,11.04 26.64,11.14 C26.44,11.16 26.14,11.14 26.16,11.44 C26.18,11.74 26.48,11.68 26.68,11.7 C27.56,11.74 28.44,11.62 29.32,11.52 C30.32,11.42 31.32,11.28 32.32,11.28 C33.2,11.28 33.34,11.46 33.1,12.3 C32.98,12.74 32.8,13.16 32.66,13.58 C32.62,13.7 32.54,13.86 32.7,13.94 C32.84,14.02 32.94,13.88 33.02,13.76 C33.46,13.04 33.88,12.3 34.04,11.46 C34.18,10.7 33.88,10.3 33.12,10.16 C32.56,10.08 31.98,10.04 31.42,10.06 Z" id="Combined-Shape" fill="#FFFFFF"></path>
                <path d="M0,0 L40,0 L40,30 L0,30 L0,28.34 C2.26,27.46 7.72,25.34 9.98,24.46 C17.74,21.42 25.5,18.4 33.26,15.36 C33.66,15.22 34,14.92 34.18,14.52 C34.78,13.38 35.38,12.26 35.46,10.94 C35.52,9.72 34.92,9.02 33.7,8.86 C33.48,8.84 33.26,8.84 33.06,8.82 C31.86,8.72 30.72,8.76 29.58,8.02 C28.32,7.18 26.66,7.16 25.16,6.84 C18.64,5.52 0,1.7 0,1.7 L0,0 Z M3.55271368e-15,27.18 L3.55271368e-15,8.34 C5.34,8.36 15.24,8.36 20.6,8.34 C22.94,8.34 25.3,8.34 27.62,8.74 C28.14,8.84 28.66,8.96 29.12,9.24 C29.32,9.36 29.54,9.54 29.46,9.8 C29.38,10.06 29.12,9.92 28.94,9.92 C24.34,9.92 19.76,9.94 15.16,9.92 C14.6,9.92 14.46,10 14.64,10.56 C15.34,12.6 16,14.66 16.64,16.72 C16.78,17.2 16.94,17.18 17.32,17 C20.8,15.38 24.4,14.06 28.18,13.3 C29.2,13.1 30.26,13.04 31.3,13.1 C31.52,13.12 31.8,13.14 31.8,13.4 C31.8,13.64 31.52,13.66 31.34,13.7 C24.64,14.96 18.6,17.92 12.6,20.96 C8.6,22.98 4.56,24.94 0.54,26.92 C0.38,27 0.22,27.08 3.55271368e-15,27.18 Z M31.42,10.06 C31.98,10.04 32.56,10.08 33.12,10.16 C33.88,10.3 34.18,10.7 34.04,11.46 C33.88,12.3 33.46,13.04 33.02,13.76 C32.94,13.88 32.84,14.02 32.7,13.94 C32.54,13.86 32.62,13.7 32.66,13.58 C32.8,13.16 32.98,12.74 33.1,12.3 C33.34,11.46 33.2,11.28 32.32,11.28 C31.32,11.28 30.32,11.42 29.32,11.52 C28.44,11.62 27.56,11.74 26.68,11.7 C26.48,11.68 26.18,11.74 26.16,11.44 C26.14,11.14 26.44,11.16 26.64,11.14 C27.22,11.04 27.8,10.98 28.4,10.9 C28.88,10.84 29.32,10.68 29.62,10.28 C29.76,10.1 29.94,10.06 30.14,10.08 C30.52,10.06 30.92,10.06 31.42,10.06 Z" id="Combined-Shape" fill="#1A5A9E"></path>
            </g>
        </g>
    </g>
</svg>