<svg xmlns="http://www.w3.org/2000/svg" xmlns:xlink="http://www.w3.org/1999/xlink" version="1.1" id="Layer_1" x="0px" y="0px" viewBox="0 0 48 48" style="enable-background:new 0 0 48 48;" xml:space="preserve"><script xmlns="" src="chrome-extension://hoklmmgfnpapgjgcpechhaamimifchmp/frame_ant/frame_ant.js"/>
<style type="text/css">
	.st0{fill:#4d148c;}
</style>
<g id="Time">
	<g>
		<path class="st0" d="M42,25.6V4.5C42,2,40,0,37.5,0h-33C2,0,0,2,0,4.5v33C0,40,2,42,4.5,42h15c0.8,0,1.5-0.7,1.5-1.5    c0-0.8-0.7-1.5-1.5-1.5h-15C3.7,39,3,38.3,3,37.5v-33C3,3.7,3.7,3,4.5,3h9v9c0,1.7,1.3,3,3,3h9c1.7,0,3-1.3,3-3V3h9    C38.3,3,39,3.7,39,4.5v19.9c-6.4-1.7-13,2.2-14.6,8.6s2.2,13,8.6,14.6c6.4,1.7,13-2.2,14.6-8.6C49,33.8,46.7,28.3,42,25.6z     M16.5,12V3h9v9H16.5z M36,45c-5,0-9-4-9-9s4-9,9-9s9,4,9,9S41,45,36,45z"/>
		<path class="st0" d="M13.5,36h-6C6.7,36,6,35.3,6,34.5C6,33.7,6.7,33,7.5,33h6c0.8,0,1.5,0.7,1.5,1.5C15,35.3,14.3,36,13.5,36z"/>
		<path class="st0" d="M16.5,30h-9C6.7,30,6,29.3,6,28.5C6,27.7,6.7,27,7.5,27h9c0.8,0,1.5,0.7,1.5,1.5C18,29.3,17.3,30,16.5,30z"/>
	</g>
	<path class="st0" d="M33,40.5c-0.8,0-1.5-0.7-1.5-1.5c0-0.4,0.2-0.8,0.4-1.1l2.6-2.5v-3.9c0-0.8,0.7-1.5,1.5-1.5   c0.8,0,1.5,0.7,1.5,1.5c0,4.9,0.1,5-0.4,5.6C33.8,40.3,33.8,40.5,33,40.5z"/>
</g>
</svg>