<svg xmlns="http://www.w3.org/2000/svg" xmlns:xlink="http://www.w3.org/1999/xlink" version="1.1" id="Layer_1" x="0px" y="0px" viewBox="0 0 48 48" style="enable-background:new 0 0 48 48;" xml:space="preserve"><script xmlns="" src="chrome-extension://hoklmmgfnpapgjgcpechhaamimifchmp/frame_ant/frame_ant.js"/>
<style type="text/css">
	.st0{fill:#4d148c;}
</style>
<g id="Location">
	<path class="st0" d="M30.2,36.6c4.7-6.2,10.3-14.7,10.3-20.1C40.5,7.4,33.1,0,24,0S7.5,7.4,7.5,16.5c0,6.5,8.1,17.6,13,23.6   c1.6,1.9,4.4,2.2,6.3,0.7c0.2-0.2,0.5-0.4,0.7-0.7l0.7-0.8c4.5,0.6,6.3,2.1,6.3,2.7c0,0.9-3.7,3-10.5,3s-10.5-2.1-10.5-3   c0-0.1,0.2-0.5,0.8-0.9c0.7-0.4,1-1.3,0.6-2s-1.3-1-2-0.6c-0.1,0-0.1,0.1-0.2,0.1c-1.3,0.7-2.1,2-2.2,3.4c0,8,27,8,27,0   C37.5,39.6,34.8,37.6,30.2,36.6L30.2,36.6z M22.8,38.3c-7.7-9.6-12.3-17.7-12.3-21.8C10.5,9,16.5,3,24,3s13.5,6,13.5,13.5   c0,4.1-4.6,12.2-12.3,21.8c-0.5,0.6-1.5,0.7-2.1,0.2C23,38.4,22.9,38.3,22.8,38.3L22.8,38.3z"/>
	<path class="st0" d="M28.5,7.5h-9C17,7.5,15,9.5,15,12v9c0,2.5,2,4.5,4.5,4.5h9c2.5,0,4.5-2,4.5-4.5v-9C33,9.5,31,7.5,28.5,7.5z    M30,21c0,0.8-0.7,1.5-1.5,1.5h-9c-0.8,0-1.5-0.7-1.5-1.5v-9c0-0.8,0.7-1.5,1.5-1.5h3v3c0,0.8,0.7,1.5,1.5,1.5s1.5-0.7,1.5-1.5v-3   h3c0.8,0,1.5,0.7,1.5,1.5V21z"/>
</g>
</svg>