<?xml version="1.0" encoding="utf-8"?>
<svg version="1.1" id="Layer_1" xmlns="http://www.w3.org/2000/svg" xmlns:xlink="http://www.w3.org/1999/xlink" x="0px" y="0px"
	 viewBox="0 0 48 48" style="enable-background:new 0 0 48 48;" xml:space="preserve">
<g>
	<g>
		<defs>
			<rect id="SVGID_1_" x="3.1" y="0" width="41.7" height="48"/>
		</defs>
		<clipPath id="SVGID_2_">
			<use xlink:href="#SVGID_1_"  style="overflow:visible;"/>
		</clipPath>
		<path fill="#4d148c" clip-path="url(#SVGID_2_)" d="M42.2,13.1C42,10.8,40.1,9,37.7,9H33c0-5-4-9-9-9s-9,4-9,9h-4.7C7.9,9,6,10.8,5.8,13.1l-2.5,30
			c-0.1,1.3,0.3,2.5,1.2,3.4S6.5,48,7.8,48H12c0.8,0,1.5-0.7,1.5-1.5S12.8,45,12,45H7.8c-0.4,0-0.8-0.2-1.1-0.5
			c-0.3-0.3-0.4-0.7-0.4-1.1l2.5-30c0.1-0.8,0.7-1.4,1.5-1.4H15v4.5c0,0.8,0.7,1.5,1.5,1.5c0.8,0,1.5-0.7,1.5-1.5V12h12v4.5
			c0,0.8,0.7,1.5,1.5,1.5c0.8,0,1.5-0.7,1.5-1.5V12h4.7c0.8,0,1.4,0.6,1.5,1.4l2.5,30c0,0.4-0.1,0.8-0.4,1.1
			c-0.3,0.3-0.7,0.5-1.1,0.5H18c-0.8,0-1.5,0.7-1.5,1.5S17.2,48,18,48h22.2c1.3,0,2.5-0.5,3.3-1.4c0.9-0.9,1.3-2.2,1.2-3.4
			L42.2,13.1z M18,9c0-3.3,2.7-6,6-6s6,2.7,6,6H18z M18,9"/>
	</g>
	<path fill="#ff6600" d="M22.9,38.6l-7.5-7.5c-2.2-2.2-2.2-5.9,0-8.1c2.2-2.2,5.9-2.2,8.1,0l0.4,0.4l0.4-0.4c2.2-2.2,5.9-2.2,8.1,0
		c2.2,2.2,2.2,5.9,0,8.1l-7.5,7.5C24.8,38.8,24.4,39,24,39C23.6,39,23.2,38.8,22.9,38.6L22.9,38.6z M19.5,24.3
		c-1.1,0-2.1,0.7-2.5,1.7c-0.4,1-0.2,2.2,0.6,3l6.4,6.4l6.4-6.4c1.1-1.1,1.1-2.8,0-3.9c-1.1-1.1-2.8-1.1-3.9,0l-1.5,1.5
		C24.8,26.8,24.4,27,24,27c-0.4,0-0.8-0.2-1.1-0.4l-1.5-1.5C20.9,24.5,20.2,24.3,19.5,24.3L19.5,24.3z M19.5,24.3"/>
</g>
</svg>
