<svg xmlns="http://www.w3.org/2000/svg" xmlns:xlink="http://www.w3.org/1999/xlink" version="1.1" id="Layer_1" x="0px" y="0px" viewBox="0 0 48 48" style="enable-background:new 0 0 48 48;" xml:space="preserve"><script xmlns="" src="chrome-extension://hoklmmgfnpapgjgcpechhaamimifchmp/frame_ant/frame_ant.js"/>
<style type="text/css">
	.st0{fill:#4d148c;}
</style>
<g id="Protection">
	<path class="st0" d="M23.5,47.9C11.2,43.1,3,31.3,3,18.1v-7.6c0-0.6,0.3-1.1,0.9-1.4l19.5-9c0.4-0.2,0.9-0.2,1.3,0l19.5,9   c0.8,0.3,1.1,1.2,0.7,2c-0.3,0.8-1.2,1.1-2,0.7L24,3.2L6,11.5v6.6c0,11.7,7.1,22.3,18,26.8c10.9-4.5,17.9-15,18-26.8v-1.6   c0-0.8,0.7-1.5,1.5-1.5s1.5,0.7,1.5,1.5v1.6c-0.1,13.2-8.2,25-20.5,29.8C24.2,48,23.8,48,23.5,47.9z"/>
	<g>
		<path class="st0" d="M30,12H18c-2.5,0-4.5,2-4.5,4.5v12c0,2.5,2,4.5,4.5,4.5h12c2.5,0,4.5-2,4.5-4.5v-12C34.5,14,32.5,12,30,12z     M25.5,15v3h-3v-3H25.5z M31.5,28.5c0,0.8-0.7,1.5-1.5,1.5H18c-0.8,0-1.5-0.7-1.5-1.5v-12c0-0.8,0.7-1.5,1.5-1.5h1.5v4.5    c0,0.8,0.7,1.5,1.5,1.5h6c0.8,0,1.5-0.7,1.5-1.5V15H30c0.8,0,1.5,0.7,1.5,1.5V28.5z"/>
		<path class="st0" d="M25.5,24h-3c-0.8,0-1.5,0.7-1.5,1.5s0.7,1.5,1.5,1.5h3c0.8,0,1.5-0.7,1.5-1.5S26.3,24,25.5,24z"/>
	</g>
</g>
</svg>