<svg xmlns="http://www.w3.org/2000/svg" xmlns:xlink="http://www.w3.org/1999/xlink" version="1.1" id="Layer_1" x="0px" y="0px" viewBox="0 0 48 48" style="enable-background:new 0 0 48 48;" xml:space="preserve"><script xmlns="" src="chrome-extension://hoklmmgfnpapgjgcpechhaamimifchmp/frame_ant/frame_ant.js"/>
<style type="text/css">
	.st0{fill:#4d148c;}
</style>
<g id="Coding">
	<g>
		<path class="st0" d="M46.5,15c0.8,0,1.5-0.7,1.5-1.5v-9C48,2,46,0,43.5,0h-39C2,0,0,2,0,4.5v39C0,46,2,48,4.5,48l0,0h39    c2.5,0,4.5-2,4.5-4.5l0,0v-24c0-0.8-0.7-1.5-1.5-1.5S45,18.7,45,19.5v24c0,0.8-0.7,1.5-1.5,1.5H18V15H46.5z M3,4.5    C3,3.7,3.7,3,4.5,3h39C44.3,3,45,3.7,45,4.5V12H3V4.5z M15,45H4.5C3.7,45,3,44.3,3,43.5V15h12V45z"/>
		<path class="st0" d="M40.5,9C41.3,9,42,8.3,42,7.5S41.3,6,40.5,6S39,6.7,39,7.5S39.7,9,40.5,9z"/>
		<path class="st0" d="M34.5,9C35.3,9,36,8.3,36,7.5S35.3,6,34.5,6S33,6.7,33,7.5S33.7,9,34.5,9z"/>
		<path class="st0" d="M28.5,9C29.3,9,30,8.3,30,7.5S29.3,6,28.5,6S27,6.7,27,7.5S27.7,9,28.5,9z"/>
		<path class="st0" d="M10.5,22.5h-3C6.7,22.5,6,21.8,6,21s0.7-1.5,1.5-1.5h3c0.8,0,1.5,0.7,1.5,1.5S11.3,22.5,10.5,22.5z"/>
		<path class="st0" d="M10.5,28.5h-3C6.7,28.5,6,27.8,6,27s0.7-1.5,1.5-1.5h3c0.8,0,1.5,0.7,1.5,1.5S11.3,28.5,10.5,28.5z"/>
		<path class="st0" d="M10.5,34.5h-3C6.7,34.5,6,33.8,6,33s0.7-1.5,1.5-1.5h3c0.8,0,1.5,0.7,1.5,1.5S11.3,34.5,10.5,34.5z"/>
		<path class="st0" d="M10.5,40.5h-3C6.7,40.5,6,39.8,6,39s0.7-1.5,1.5-1.5h3c0.8,0,1.5,0.7,1.5,1.5S11.3,40.5,10.5,40.5z"/>
	</g>
	<path class="st0" d="M40.5,22.5h-18c-0.8,0-1.5-0.7-1.5-1.5s0.7-1.5,1.5-1.5h18c0.8,0,1.5,0.7,1.5,1.5S41.3,22.5,40.5,22.5z"/>
	<path class="st0" d="M40.5,34.5h-15c-0.8,0-1.5-0.7-1.5-1.5s0.7-1.5,1.5-1.5h15c0.8,0,1.5,0.7,1.5,1.5S41.3,34.5,40.5,34.5z"/>
	<path class="st0" d="M40.5,28.5h-12c-0.8,0-1.5-0.7-1.5-1.5s0.7-1.5,1.5-1.5h12c0.8,0,1.5,0.7,1.5,1.5S41.3,28.5,40.5,28.5z"/>
	<path class="st0" d="M40.5,40.5h-12c-0.8,0-1.5-0.7-1.5-1.5s0.7-1.5,1.5-1.5h12c0.8,0,1.5,0.7,1.5,1.5S41.3,40.5,40.5,40.5z"/>
</g>
</svg>