<svg xmlns="http://www.w3.org/2000/svg" xmlns:xlink="http://www.w3.org/1999/xlink" version="1.1" id="Layer_1" x="0px" y="0px" viewBox="0 0 48 48" style="enable-background:new 0 0 48 48;" xml:space="preserve"><script xmlns="" src="chrome-extension://hoklmmgfnpapgjgcpechhaamimifchmp/frame_ant/frame_ant.js"/>
<style type="text/css">
	.st0{fill:#4d148c;}
</style>
<g id="No_Creditcard">
	<g>
		<path class="st0" d="M20.8,47.8c-0.8-0.1-1.4-0.9-1.3-1.7s0.9-1.4,1.7-1.3c11.5,1.4,22-6.7,23.4-18.2s-6.7-22-18.2-23.4    S4.4,9.8,3,21.3c-1.2,9.3,4,18.3,12.7,21.9c0.8,0.3,1.1,1.2,0.8,2s-1.2,1.1-2,0.8l0,0C2.3,40.7-3.3,26.6,2,14.4S21.4-3.3,33.6,2    S51.3,21.4,46,33.6C41.7,43.4,31.4,49.2,20.8,47.8L20.8,47.8z"/>
		<path class="st0" d="M8.1,41.4c-0.8,0-1.5-0.7-1.5-1.5c0-0.4,0.2-0.8,0.4-1.1l5.4-5.4c0.6-0.6,1.5-0.6,2.1,0    c0.6,0.6,0.6,1.5,0,2.1l-5.4,5.4C8.9,41.2,8.5,41.4,8.1,41.4z"/>
		<path class="st0" d="M34.5,15c-0.8,0-1.5-0.7-1.5-1.5c0-0.4,0.2-0.8,0.4-1.1L38.8,7c0.6-0.6,1.5-0.6,2.1,0s0.6,1.5,0,2.1l-5.4,5.4    C35.3,14.8,34.9,15,34.5,15L34.5,15z"/>
	</g>
	<path class="st0" d="M34.5,12h-21C11,12,9,14,9,16.5v15C9,34,11,36,13.5,36h21c2.5,0,4.5-2,4.5-4.5v-15C39,14,37,12,34.5,12z    M13.5,15h21c0.8,0,1.5,0.7,1.5,1.5V18H12v-1.5C12,15.6,12.7,15,13.5,15z M34.5,33h-21c-0.8,0-1.5-0.7-1.5-1.5V21h24v10.5   C36,32.3,35.3,33,34.5,33z"/>
	<path class="st0" d="M22.5,30h-6c-0.8,0-1.5-0.7-1.5-1.5s0.7-1.5,1.5-1.5h6c0.8,0,1.5,0.7,1.5,1.5S23.3,30,22.5,30z"/>
</g>
</svg>